<mxfile host="app.diagrams.net" modified="2024-05-11T10:23:27.456Z" agent="Mozilla/5.0 (iPhone; CPU iPhone OS 17_5 like Mac OS X) AppleWebKit/605.1.15 (KHTML, like Gecko) Version/17.5 Mobile/15E148 Safari/604.1" etag="yGbjoOxch1J26QLdgk-Y" version="24.4.0" type="github">
  <diagram id="C5RBs43oDa-KdzZeNtuy" name="Page-1">
    <mxGraphModel dx="1242" dy="1824" grid="1" gridSize="10" guides="1" tooltips="1" connect="1" arrows="1" fold="1" page="1" pageScale="1" pageWidth="827" pageHeight="1169" math="0" shadow="0">
      <root>
        <mxCell id="WIyWlLk6GJQsqaUBKTNV-0" />
        <mxCell id="WIyWlLk6GJQsqaUBKTNV-1" parent="WIyWlLk6GJQsqaUBKTNV-0" />
        <mxCell id="WIyWlLk6GJQsqaUBKTNV-2" value="" style="rounded=0;html=1;jettySize=auto;orthogonalLoop=1;fontSize=11;endArrow=block;endFill=0;endSize=8;strokeWidth=1;shadow=0;labelBackgroundColor=none;edgeStyle=orthogonalEdgeStyle;" parent="WIyWlLk6GJQsqaUBKTNV-1" source="WIyWlLk6GJQsqaUBKTNV-3" target="WIyWlLk6GJQsqaUBKTNV-6" edge="1">
          <mxGeometry relative="1" as="geometry" />
        </mxCell>
        <mxCell id="WIyWlLk6GJQsqaUBKTNV-3" value="Lamp doesn&#39;t work" style="rounded=1;whiteSpace=wrap;html=1;fontSize=12;glass=0;strokeWidth=1;shadow=0;" parent="WIyWlLk6GJQsqaUBKTNV-1" vertex="1">
          <mxGeometry x="160" y="80" width="120" height="40" as="geometry" />
        </mxCell>
        <mxCell id="WIyWlLk6GJQsqaUBKTNV-4" value="Yes" style="rounded=0;html=1;jettySize=auto;orthogonalLoop=1;fontSize=11;endArrow=block;endFill=0;endSize=8;strokeWidth=1;shadow=0;labelBackgroundColor=none;edgeStyle=orthogonalEdgeStyle;" parent="WIyWlLk6GJQsqaUBKTNV-1" source="WIyWlLk6GJQsqaUBKTNV-6" target="WIyWlLk6GJQsqaUBKTNV-10" edge="1">
          <mxGeometry y="20" relative="1" as="geometry">
            <mxPoint as="offset" />
          </mxGeometry>
        </mxCell>
        <mxCell id="WIyWlLk6GJQsqaUBKTNV-5" value="No" style="edgeStyle=orthogonalEdgeStyle;rounded=0;html=1;jettySize=auto;orthogonalLoop=1;fontSize=11;endArrow=block;endFill=0;endSize=8;strokeWidth=1;shadow=0;labelBackgroundColor=none;" parent="WIyWlLk6GJQsqaUBKTNV-1" source="WIyWlLk6GJQsqaUBKTNV-6" target="WIyWlLk6GJQsqaUBKTNV-7" edge="1">
          <mxGeometry y="10" relative="1" as="geometry">
            <mxPoint as="offset" />
          </mxGeometry>
        </mxCell>
        <mxCell id="WIyWlLk6GJQsqaUBKTNV-6" value="Lamp&lt;br&gt;plugged in?" style="rhombus;whiteSpace=wrap;html=1;shadow=0;fontFamily=Helvetica;fontSize=12;align=center;strokeWidth=1;spacing=6;spacingTop=-4;" parent="WIyWlLk6GJQsqaUBKTNV-1" vertex="1">
          <mxGeometry x="170" y="170" width="100" height="80" as="geometry" />
        </mxCell>
        <mxCell id="WIyWlLk6GJQsqaUBKTNV-7" value="Plug in lamp" style="rounded=1;whiteSpace=wrap;html=1;fontSize=12;glass=0;strokeWidth=1;shadow=0;" parent="WIyWlLk6GJQsqaUBKTNV-1" vertex="1">
          <mxGeometry x="320" y="190" width="120" height="40" as="geometry" />
        </mxCell>
        <mxCell id="WIyWlLk6GJQsqaUBKTNV-8" value="No" style="rounded=0;html=1;jettySize=auto;orthogonalLoop=1;fontSize=11;endArrow=block;endFill=0;endSize=8;strokeWidth=1;shadow=0;labelBackgroundColor=none;edgeStyle=orthogonalEdgeStyle;" parent="WIyWlLk6GJQsqaUBKTNV-1" source="WIyWlLk6GJQsqaUBKTNV-10" target="WIyWlLk6GJQsqaUBKTNV-11" edge="1">
          <mxGeometry x="0.3333" y="20" relative="1" as="geometry">
            <mxPoint as="offset" />
          </mxGeometry>
        </mxCell>
        <mxCell id="WIyWlLk6GJQsqaUBKTNV-9" value="Yes" style="edgeStyle=orthogonalEdgeStyle;rounded=0;html=1;jettySize=auto;orthogonalLoop=1;fontSize=11;endArrow=block;endFill=0;endSize=8;strokeWidth=1;shadow=0;labelBackgroundColor=none;" parent="WIyWlLk6GJQsqaUBKTNV-1" source="WIyWlLk6GJQsqaUBKTNV-10" target="WIyWlLk6GJQsqaUBKTNV-12" edge="1">
          <mxGeometry y="10" relative="1" as="geometry">
            <mxPoint as="offset" />
          </mxGeometry>
        </mxCell>
        <mxCell id="WIyWlLk6GJQsqaUBKTNV-10" value="Bulb&lt;br&gt;burned out?" style="rhombus;whiteSpace=wrap;html=1;shadow=0;fontFamily=Helvetica;fontSize=12;align=center;strokeWidth=1;spacing=6;spacingTop=-4;" parent="WIyWlLk6GJQsqaUBKTNV-1" vertex="1">
          <mxGeometry x="170" y="290" width="100" height="80" as="geometry" />
        </mxCell>
        <mxCell id="WIyWlLk6GJQsqaUBKTNV-11" value="Repair Lamp" style="rounded=1;whiteSpace=wrap;html=1;fontSize=12;glass=0;strokeWidth=1;shadow=0;" parent="WIyWlLk6GJQsqaUBKTNV-1" vertex="1">
          <mxGeometry x="160" y="430" width="120" height="40" as="geometry" />
        </mxCell>
        <mxCell id="WIyWlLk6GJQsqaUBKTNV-12" value="Replace Bulb" style="rounded=1;whiteSpace=wrap;html=1;fontSize=12;glass=0;strokeWidth=1;shadow=0;" parent="WIyWlLk6GJQsqaUBKTNV-1" vertex="1">
          <mxGeometry x="320" y="310" width="120" height="40" as="geometry" />
        </mxCell>
        <mxCell id="EhG8PW5iCOPfiL2vXaqH-10" value="" style="edgeStyle=none;curved=1;rounded=0;orthogonalLoop=1;jettySize=auto;html=1;fontSize=12;startSize=8;endSize=8;" edge="1" parent="WIyWlLk6GJQsqaUBKTNV-1" source="EhG8PW5iCOPfiL2vXaqH-0" target="EhG8PW5iCOPfiL2vXaqH-9">
          <mxGeometry relative="1" as="geometry" />
        </mxCell>
        <UserObject label="%name%&lt;br&gt;&lt;i style=&quot;color:gray;&quot;&gt;%position%&lt;/i&gt;&lt;br&gt;&lt;a href=&quot;mailto:%email%&quot;&gt;Email&lt;/a&gt;" name="Tessa Miller" position="CFO" location="Office 1" email="me@example.com" placeholders="1" link="https://www.draw.io" id="EhG8PW5iCOPfiL2vXaqH-0">
          <mxCell style="label;image=https://cdn3.iconfinder.com/data/icons/user-avatars-1/512/users-3-128.png;whiteSpace=wrap;html=1;rounded=1;fillColor=default;strokeColor=#6c8ebf;" vertex="1" parent="WIyWlLk6GJQsqaUBKTNV-1">
            <mxGeometry x="279" y="490" width="168" height="88" as="geometry" />
          </mxCell>
        </UserObject>
        <UserObject label="%name%&lt;br&gt;&lt;i style=&quot;color:gray;&quot;&gt;%position%&lt;/i&gt;&lt;br&gt;&lt;a href=&quot;mailto:%email%&quot;&gt;Email&lt;/a&gt;" name="Edward Morrison" position="Brand Manager" location="Office 2" email="me@example.com" placeholders="1" link="https://www.draw.io" id="EhG8PW5iCOPfiL2vXaqH-1">
          <mxCell style="label;image=https://cdn3.iconfinder.com/data/icons/user-avatars-1/512/users-10-3-128.png;whiteSpace=wrap;html=1;rounded=1;fillColor=default;strokeColor=#82b366;" vertex="1" parent="WIyWlLk6GJQsqaUBKTNV-1">
            <mxGeometry x="160" y="866" width="198" height="88" as="geometry" />
          </mxCell>
        </UserObject>
        <UserObject label="%name%&lt;br&gt;&lt;i style=&quot;color:gray;&quot;&gt;%position%&lt;/i&gt;&lt;br&gt;&lt;a href=&quot;mailto:%email%&quot;&gt;Email&lt;/a&gt;" name="Alison Donovan" position="System Admin" location="Office 3" email="me@example.com" placeholders="1" link="https://www.draw.io" id="EhG8PW5iCOPfiL2vXaqH-2">
          <mxCell style="label;image=https://cdn3.iconfinder.com/data/icons/user-avatars-1/512/users-2-128.png;whiteSpace=wrap;html=1;rounded=1;fillColor=default;strokeColor=#82b366;" vertex="1" parent="WIyWlLk6GJQsqaUBKTNV-1">
            <mxGeometry x="269" y="678" width="188" height="88" as="geometry" />
          </mxCell>
        </UserObject>
        <UserObject label="%name%&lt;br&gt;&lt;i style=&quot;color:gray;&quot;&gt;%position%&lt;/i&gt;&lt;br&gt;&lt;a href=&quot;mailto:%email%&quot;&gt;Email&lt;/a&gt;" name="Evan Valet" position="HR Director" location="Office 4" email="me@example.com" placeholders="1" link="https://www.draw.io" id="EhG8PW5iCOPfiL2vXaqH-3">
          <mxCell style="label;image=https://cdn3.iconfinder.com/data/icons/user-avatars-1/512/users-9-2-128.png;whiteSpace=wrap;html=1;rounded=1;fillColor=default;strokeColor=#82b366;" vertex="1" parent="WIyWlLk6GJQsqaUBKTNV-1">
            <mxGeometry x="398" y="866" width="168" height="88" as="geometry" />
          </mxCell>
        </UserObject>
        <mxCell id="EhG8PW5iCOPfiL2vXaqH-4" value="manages" style="curved=1;endArrow=blockThin;endFill=1;fontSize=11;" edge="1" parent="WIyWlLk6GJQsqaUBKTNV-1" source="EhG8PW5iCOPfiL2vXaqH-0" target="EhG8PW5iCOPfiL2vXaqH-1">
          <mxGeometry relative="1" as="geometry">
            <Array as="points">
              <mxPoint x="310.33333333333337" y="590" />
              <mxPoint x="229" y="628" />
              <mxPoint x="229" y="816" />
              <mxPoint x="212" y="854" />
            </Array>
          </mxGeometry>
        </mxCell>
        <mxCell id="EhG8PW5iCOPfiL2vXaqH-5" value="manages" style="curved=1;endArrow=blockThin;endFill=1;fontSize=11;" edge="1" parent="WIyWlLk6GJQsqaUBKTNV-1" source="EhG8PW5iCOPfiL2vXaqH-0" target="EhG8PW5iCOPfiL2vXaqH-2">
          <mxGeometry relative="1" as="geometry">
            <Array as="points">
              <mxPoint x="363" y="592" />
              <mxPoint x="363" y="666" />
            </Array>
          </mxGeometry>
        </mxCell>
        <mxCell id="EhG8PW5iCOPfiL2vXaqH-6" value="manages" style="curved=1;endArrow=blockThin;endFill=1;fontSize=11;" edge="1" parent="WIyWlLk6GJQsqaUBKTNV-1" source="EhG8PW5iCOPfiL2vXaqH-0" target="EhG8PW5iCOPfiL2vXaqH-3">
          <mxGeometry relative="1" as="geometry">
            <Array as="points">
              <mxPoint x="415.66666666666663" y="590" />
              <mxPoint x="497" y="628" />
              <mxPoint x="497" y="816" />
              <mxPoint x="521.5" y="854" />
            </Array>
          </mxGeometry>
        </mxCell>
        <mxCell id="EhG8PW5iCOPfiL2vXaqH-7" value="" style="curved=1;fontSize=11;" edge="1" parent="WIyWlLk6GJQsqaUBKTNV-1" source="EhG8PW5iCOPfiL2vXaqH-2" target="EhG8PW5iCOPfiL2vXaqH-1">
          <mxGeometry relative="1" as="geometry">
            <Array as="points">
              <mxPoint x="318.5" y="778" />
              <mxPoint x="306" y="854" />
            </Array>
          </mxGeometry>
        </mxCell>
        <mxCell id="EhG8PW5iCOPfiL2vXaqH-8" value="" style="curved=1;fontSize=11;" edge="1" parent="WIyWlLk6GJQsqaUBKTNV-1" source="EhG8PW5iCOPfiL2vXaqH-2" target="EhG8PW5iCOPfiL2vXaqH-3">
          <mxGeometry relative="1" as="geometry">
            <Array as="points">
              <mxPoint x="407.5" y="778" />
              <mxPoint x="442.5" y="854" />
            </Array>
          </mxGeometry>
        </mxCell>
        <mxCell id="EhG8PW5iCOPfiL2vXaqH-12" value="" style="edgeStyle=none;curved=1;rounded=0;orthogonalLoop=1;jettySize=auto;html=1;fontSize=12;startSize=8;endSize=8;" edge="1" parent="WIyWlLk6GJQsqaUBKTNV-1" source="EhG8PW5iCOPfiL2vXaqH-9" target="EhG8PW5iCOPfiL2vXaqH-11">
          <mxGeometry relative="1" as="geometry" />
        </mxCell>
        <mxCell id="EhG8PW5iCOPfiL2vXaqH-9" value="" style="rhombus;whiteSpace=wrap;html=1;align=left;strokeColor=#6c8ebf;fontStyle=1;spacing=2;spacingLeft=52;rounded=1;" vertex="1" parent="WIyWlLk6GJQsqaUBKTNV-1">
          <mxGeometry x="160" y="460" width="80" height="80" as="geometry" />
        </mxCell>
        <mxCell id="EhG8PW5iCOPfiL2vXaqH-11" value="" style="shape=document;whiteSpace=wrap;html=1;boundedLbl=1;align=left;strokeColor=#6c8ebf;fontStyle=1;spacing=2;spacingLeft=52;rounded=1;" vertex="1" parent="WIyWlLk6GJQsqaUBKTNV-1">
          <mxGeometry x="80" y="678" width="120" height="80" as="geometry" />
        </mxCell>
        <mxCell id="EhG8PW5iCOPfiL2vXaqH-13" value="" style="shape=image;imageAspect=0;aspect=fixed;verticalLabelPosition=bottom;verticalAlign=top;image=data:image/jpeg,/9j/4QDKRXhpZgAATU0AKgAAAAgABgESAAMAAAABAAEAAAEaAAUAAAABAAAAVgEbAAUAAAABAAAAXgEoAAMAAAABAAIAAAITAAMAAAABAAEAAIdpAAQAAAABAAAAZgAAAAAAAABIAAAAAQAAAEgAAAABAAeQAAAHAAAABDAyMjGRAQAHAAAABAECAwCgAAAHAAAABDAxMDCgAQADAAAAAQABAACgAgAEAAAAAQAAARWgAwAEAAAAAQAAArykBgADAAAAAQAAAAAAAAAAAAD/4gIoSUNDX1BST0ZJTEUAAQEAAAIYYXBwbAQAAABtbnRyUkdCIFhZWiAH5gABAAEAAAAAAABhY3NwQVBQTAAAAABBUFBMAAAAAAAAAAAAAAAAAAAAAAAA9tYAAQAAAADTLWFwcGzs/aOOOIVHw220vU962hgvAAAAAAAAAAAAAAAAAAAAAAAAAAAAAAAAAAAAAAAAAApkZXNjAAAA/AAAADBjcHJ0AAABLAAAAFB3dHB0AAABfAAAABRyWFlaAAABkAAAABRnWFlaAAABpAAAABRiWFlaAAABuAAAABRyVFJDAAABzAAAACBjaGFkAAAB7AAAACxiVFJDAAABzAAAACBnVFJDAAABzAAAACBtbHVjAAAAAAAAAAEAAAAMZW5VUwAAABQAAAAcAEQAaQBzAHAAbABhAHkAIABQADNtbHVjAAAAAAAAAAEAAAAMZW5VUwAAADQAAAAcAEMAbwBwAHkAcgBpAGcAaAB0ACAAQQBwAHAAbABlACAASQBuAGMALgAsACAAMgAwADIAMlhZWiAAAAAAAAD21QABAAAAANMsWFlaIAAAAAAAAIPfAAA9v////7tYWVogAAAAAAAASr8AALE3AAAKuVhZWiAAAAAAAAAoOAAAEQsAAMi5cGFyYQAAAAAAAwAAAAJmZgAA8qcAAA1ZAAAT0AAACltzZjMyAAAAAAABDEIAAAXe///zJgAAB5MAAP2Q///7ov///aMAAAPcAADAbv/bAIQAAQEBAQEBAgEBAgMCAgIDBAMDAwMEBQQEBAQEBQYFBQUFBQUGBgYGBgYGBgcHBwcHBwgICAgICQkJCQkJCQkJCQEBAQECAgIEAgIECQYFBgkJCQkJCQkJCQkJCQkJCQkJCQkJCQkJCQkJCQkJCQkJCQkJCQkJCQkJCQkJCQkJCQkJ/90ABAAS/8AAEQgCvAEVAwEiAAIRAQMRAf/EAaIAAAEFAQEBAQEBAAAAAAAAAAABAgMEBQYHCAkKCxAAAgEDAwIEAwUFBAQAAAF9AQIDAAQRBRIhMUEGE1FhByJxFDKBkaEII0KxwRVS0fAkM2JyggkKFhcYGRolJicoKSo0NTY3ODk6Q0RFRkdISUpTVFVWV1hZWmNkZWZnaGlqc3R1dnd4eXqDhIWGh4iJipKTlJWWl5iZmqKjpKWmp6ipqrKztLW2t7i5usLDxMXGx8jJytLT1NXW19jZ2uHi4+Tl5ufo6erx8vP09fb3+Pn6AQADAQEBAQEBAQEBAAAAAAAAAQIDBAUGBwgJCgsRAAIBAgQEAwQHBQQEAAECdwABAgMRBAUhMQYSQVEHYXETIjKBCBRCkaGxwQkjM1LwFWJy0QoWJDThJfEXGBkaJicoKSo1Njc4OTpDREVGR0hJSlNUVVZXWFlaY2RlZmdoaWpzdHV2d3h5eoKDhIWGh4iJipKTlJWWl5iZmqKjpKWmp6ipqrKztLW2t7i5usLDxMXGx8jJytLT1NXW19jZ2uLj5OXm5+jp6vLz9PX29/j5+v/aAAwDAQACEQMRAD8A/r4ooooAKKK+d739qr9n3Tfj6/7L174ntE8ex6O+vPo/z+cmmxttM5+XaBnoM5wDxgUAfRFFfnF+z1/wVk/4J7ftXfEWT4Q/AD4mWWv+IIrKfUWt1tryBRa2xAml864t44MLkcb845xium/Zi/4KafsL/tkfEDVfhf8As2fEWw8Ta9o8P2iexjjuIJHgBAM0H2iOMXEQJALQbwuRnGRQB970V8UfEX/god+xp8J7Tx7d/EDx3ZaYnwuvNO0/xR5iTk6bcat/x4pKFjJPn/wlcrwckYOPZfCn7RPwb8b+PfG3wx8L63Fda38OlsH8Q2wVwbEana/bbUsSoBElv+8G3OBxweKAPcqK+IvAv/BQ79jT4ma38OPD3gbxxaahe/Fu2v73wpEkU4OoQaWJftbJuQCLy/JkGJNhJUgAnivFvH//AAWV/wCCafwx8FeDPiH4y+Kdjb6R8Qknm0CZbW8l+0w2tw1pNMVjtyYIVnjZPNuAikqcHA4AP1Gor84vjn/wVl/4J3fs3+KtG8F/Gf4o6Xot9r+l2mt6fhLi4hn0+8LC2uVntopIvKk2kqSwyvPSuX+Nv/BZP/gmn+zl8RJfhV8Y/ipYaXrsNtbXZhS2vLqMwXcC3NvIJrW3ljxJDIrLhuhFAH6i0V8R3v8AwUQ/Yx03w9478V3fjuyXTvhnZaRqPiWYRzlbC216AXGmSPiP5hcxEFAm49iAeKzvHn/BSX9ir4aaZ481rxn46tbS1+GSaJJ4kfybhxZr4ijD6VnZGd32lSCuzOB97bQB920V8Wa7/wAFAf2N/C1rreo6/wCP9OtrPw54c0/xZqMzb/Ki0fVTtsbzcI8MLgkbVTLfMvy/MM+AWX/BaX/gmTe/AGb9qCL4oWy+CrbV4tBnvWsNR86LUZYDcxwPafZftWTCrMGERT5SM5BAAP1Sor8obD/gtl/wS/1b4Q6x8frH4r2h8KaBqEGkXVy1jfozX11C08MENs1qLi4cxxO37iNgArE9OPT0/wCCq3/BPyb4aeBPi/D8TdO/4Rv4kaodF0C98m62T364DW8o8ndaOpI3fahEFyM4yKAP0Porw/4PftFfBn496h4t0r4Sa5FrVx4F1y58N64kSSKbPVLPAnt23quSmRyuV9DXgV3/AMFJv2IbHX/ij4VuPHlst/8ABa1N54yhFtdn+zYV4Y5EGJ9pG0i2MhDYUjPFAH3ZkUtfFHif/goV+yB4OgsrvX/GdtHBqHgeb4jQSLHM4bwzD5X+n4VCdr+auxMb2wcL8prm/wBkn/gpx+w1+3X4n1TwX+yr49h8VapotqL29t1s720aO3LiLzP9MtoQw3ED5c9RQB990UmRXg3jv9pn4C/DT4oeFfgv458U6fYeK/GtzLa6LpTyj7VdSRQmZ9sQyQojx8zALkqAckCgD3qivzvvf+Cqf/BP/Tv2q4/2Kbv4k6enxGku105dMCXBiF8x2LZG7Ef2UXJbCCAyB9+ExuwtNj/4Kq/8E/pf2rP+GK4viVp5+Iwu/wCzv7O2T+V9vDbPsQu/L+y/ad3yeR5u/f8AJjf8tAH6JUV+e2i/8FS/2BfEH7Vkn7FWkfEjT5viPFdT6edKEdwE+3WxKzWf2oxi1NwpUr5Ik37gVA3DFdF+2B/wUZ/Y0/YM/sNP2pvGkHhq48RNIthbLb3N3PJHDjzZjBaRSusMfGZCoHYZPFAH3PRX5sftBf8ABW7/AIJ3/svXXg+1+MnxN06wbx3Y22q6MbVJ75JtMvM/Z75jaRyCK1kwdkz4U4OOAcfSnx8/az/Z5/Zj+CLftGfGzxPb6P4KUWxGqok11E4uyBblBapI7CXI2lVI5HagD6Tor8dZP+C+v/BI+Pw5H4qk+MVmLGa5ezVxpuqlvNQAn92LPeFwQdxXb7199/svftYfAH9sv4WR/Gn9m3xAniXwzLdTWS3iQT237+3IEqeXcxxSDGR1XBBGKAPo+iiigAooooA//9D+viiiigDmvGHirw/4D8J6n448VXK2el6NaTX15O33YoLdDJK59lVSa/iQ/Yh8Yt8cf+Crb/tSa74itH8Z/Hj4YeLNai0w31ttsIZroWOgaSuzPkzrpltBOxuByH+7kGv7c/FPhjw/408N3/g/xXZRahpeqW8lpd2twoaKaCZSkkbr3VlJBFfkBaf8EP8A9jjw5+2dpH7Uvw78P6V4Y0jS/CuoeHm8N6Xp0dtC93fmZG1PzkYHzxbTvBgoflxhhjFAH4L+DfE37cP7DX7OGh/sF/tBnwjceGPiN8C/iG+mWugQxy3WlS6XpF7fi4uNRhZ0vDcqcN5DGEkjb93c/wBS/sMWtjp37TP/AATyuNPt0tmu/glrKyvCnMuLW3bEp9N2Tn+8a+4/2ff+CF1n8PvEmlwftB/FfUviR4S8F+Fdb8F+DtDbTrbS/wCzNI1+GW1vBPc2p3Xc7W0pjEhVMdcdMekfsPf8EhvFX7LXxv8AC3xb+LfxevviTZ/DHw9N4W8B6ZJpdrpcekadc7RN5zWzMbqYooQO2Djrn5doB/O9/wAFqtA8Uaj+2T+0r+y74clEeo/GCbwJ4psYT0ktvDfh/Uzdf+PWefrX7m/8EN/Hej/tRj9or9qmD99b+NvFml6NvLZ8yHRfDmnQL+k5/Ovp745/8EpvCXxy/wCCk3hb/goZrPiea2fw34VufDLaGtsrJOLqDULYzm4L5XCX5+XYfuDkV6L/AMEr/wDgnho//BMn9mB/2ctI8SSeLPP1m71ibUJbYWe57lIY9ohDyYCpAv8AEaAP4bvgX8ZtW+CXjv4JfFnTZc6V+y/Dq3h3W2kXMdtP4j17xNDF5pHQGDyh9K+9fgX4TstCl1zQJ4ROYf2Cpb2MyoN0cl6r3R8r/wACD+tfsD4h/wCDd74f618Nv2jvh7B8RriH/hoHxJpfiETnS0P9iHTdRudQEMSfaR9o3i7lj3Ex4UDjNerftFf8EUte8eXvh7Vf2b/jBefDe6h+GkPwk8SO+kWuqjWfDUEXlbSJHi+z3DADMkZzgALtxyAfzQ+MfG/xi8PeGtCb4TfD6D4ix337FVtY6y13ewWx0TSTcXQudXhF0CZ/sWAPs9vyc8fdr9sfHPhD4c6fdf8ABMGy8I3i+IdBQWdva6pc2vlS3lunhyL7K0lsS5Td18ss32Y8Zr71j/4I1fDvS9d1ZfC/i68s9EvvgW3wQt7WS2SaeC1dpT/aX2guN02JP9SEVc5OcYA9NtP+CZVjFoP7K2kS+MJC37MqW6RuLJP+Jv5Gmrp3IMn+j52B+C/HHXDAA/l9/wCCkXi39o7Svjn/AMFHfDPwe8F2PiLwbqtv4Dj8WatcX8NpNo0Nrp6G1aC1JBufMPmqQvK7QcEnFbH7ZHhRfG6ft1eDpZmt7fV739n6zeX+7FPaxQ7vwyD+Ff0Q/HD/AIJCaT8Y5v2q518czaYf2m4PDUUgjsVYaQfDkOwEfvR9oFyeXGI9o4Getcp8Tv8Agi5p3xKuPjZLc/ECW2Hxjufh9O2LDJ0//hBAiAJ/pA8z7Wq/7Plk/wAVAH8iXxO8beOb79l/9p34H+PHI1f4Q+FvBPw41SZ+k/8AwjfjKW2tp1HoLcQp+Br+jvUPG3wn8XfEn/go14Xm+FkvgTxloXghU1m8uNVTUrXWbO20XUU0q+isWt1t7EmzVH2bpBhxnDB8/Tfxx/4IWfCv41fEf9ovxhc+MLvS7H9oPT9MjuLWC1VpNM1LS7iC8ivYpzIDKj3EAZ7fagIJG8fKV9O/Z/8A+CVvjjwD4L+P2p/H/wCLN18RviT+0NoqaHrniX+yrbSoba3ttOn020NvYWreWGjjn+bDANtXhTksAfh98NtK0yP4D/8ABK1YreEWs3iWZpQsfDTkKQW9Tuz+P0r81/jF8ANX/aE8Iat8AvA039n3Go/tN/FmPS0Q4xe2uh2E+nxA9g0sIjz2Br+qr4h/8EXJNd/ZC+BHwK+GPxOufCfjz9nq5jvvDPi+PS4LhftJYNOZdOeQIyuwUhTIeVG7flgW/Av/AIIo6d8HLv4VeJtU+Jd74g8ReCPH+ufEbxDqU+nww/29q2u20dtcYhV2FpHtiThTJn5uhK7QDwX/AINuvjuP2kfhB8ef2iNTgFleeLfiTcavexKuESe40qwefb/smXzCB6Yr8MP2JI/h58ZP2lfFXiTwlq8Nz4l/bL+G3xg0u5s47lZZ7DUZtUu7u1N1bjm2D2NqDGD97qK/rB/Yc/4JeaP+wf8AA/4v/BL4VeLpTbfEjXdV1nTLk2ah9FTULVLaCEAyMLk2oQEM2wPj7q184fAX/gg38Df2bPGf7PvxQ+D+qW2ieLPgyb5dc1a30yITeK01G0NtOLvMhMeA8ixnMhSNyo52kAH88fwf+JXhn9pT9l/4rfFzSLhpYvhX+yJo/wAPrhT0S9kuZmcf+SSiv6b/APgiP4q/ag8S/sbeD7X4/wDw00jwJommeE/DNv4U1LTdQgvZdc04acALqeOIsbY+WsDBHOcuwwAtfP37Mn/BAbwX+zF+yx+0N+zX4X8f3FyPjrE1lFfvYKP7JsoRcC0jMXnf6Q6C4bzG3Rbv4QvWvtz/AIJ5fsTftRfsa6VF4K+L/wAebn4o+ENI0Sz0Pw9ocugWWkx6VBY4SAi4t5JJbgrAqw/Oegyc4GADtP2V/j/+3b8Vvivr3hb9p79n+P4UeFbC3kk0vWR4p07XDqE4nVUj+zWaq8G6EmXL9NuOp4/Lj/goP8C/g54D/wCC2f7Gfxh8JeGrSy8TeONa8VHXr+3jxcag2n6TZxWjz9m+zKxwewr+lLHavgH9pv8AYcj/AGjP2tfgL+1G/iRtHb4I3mtXS6etqJv7R/ti3ggKmYuvkCPyAeEfcDj5cA0Afhf8VP2XvhF8ZP26dI/4J8fsXWd5f2PhL4t2vx1+Lfie9mE1vpF+yFYdEtpkVSZrpd+2HJ8g8gvsnEWr4j+Anwv+NP8AwUF0H9iD9i2O6v8ARfhp8Yl+OnxW8XXjC4jsNeLF4NDtpV8vdLcurIy5LQYzl2jmUfc3wq/4JVftefAb9pDxV8V/gt+0vdaN4L8b/EGXx1rvhNvDNjMbz7XdxS3VodTkma4QPbx/ZwyIoxg7c5zF8Gv+CUn7Wn7PP7Rvif4r/Bv9pW50bwV40+IVz481zwgvhiyljvPtl4J7mzN9JO06B7cC33oF4AYIDQB/OB8H77X7/wDai8B+H7zS4YvgAv7W2p6lpHjhRE2o3/iHKmy0+Sz+0bjbSOkaNdeXt2tn5Svlt+6P/BYv4N+OPgz+0Von/BT/AMF+HbL4j+HPDngi+8G/EfwZK+27n8I3U0rXF5ZAc/uftMvmtxtUKfueYV6rwt/wQi1Dwz+0xpHjU/GHULj4P+HPiNJ8UdK8AHS7ceRrzESp/wATLzN5t0kAAj8rHl/Lw7NIfoX/AIKGf8Eq/Gv7X3xntv2hfgT8V7n4WeLLrwfeeANbkOlW+sW2oeHb2Z5ZrYQ3DR/Z5SZpf36MWxtC7cbqAP5/fFk3wWu/jL+07YfAi3Zvh9B+yJZt4P8AtPmSTx6P9gtXtg32olw37wFsnII/vV9Sf8FC7id/+DV34cyBvMJ8L+AQQx+8BJZ4H6Dj0+lfW37Qn/BA3XdW0Oysf2PPjFd/Dl5/hpb/AAt8RxajpUGrx65o1sqqpdmeI2s0gUCR7dQcAbNmX3/UPjn/AIJn+Pv2jv8AgkZ4S/4J2/GHWdM8Ha3pWlaBp15f6HFLqdmg0KaBwYFuTbuTMluMlsbWY8MOCAfGP/BWfxT8cviR/wAEFvjD4u/ag+E9l8IPFiXWmKNFt9RstZCQf29pvl3AurMCMGfkEDkYyeor+hH4EWNjp/wX8I22mwxQQro1gFSJPLUAW8eAF7DHQdq+f/8Agoj+x5H+3x+xr4y/ZKm10+Gh4sSyX+0lg+0+QbK/t70fud8e4MbcKRvXg9a+svBXhmHwb4N0fwhBIZk0mzgs1c9XEEQiBP1xQB1VFFFABRRRQB//0f6+KKKKAOU8b+MND+H3gvV/HvieXyNN0Oznv7uQDOyC2jMsjY9lU1+Hnwi/4Ll6V430fUvEnxJ+D+v+CNNvfAOtfEfwdPeX9jcf8JFpGh2/2idVFux+yXDJyqTEjbyWHAP6l/twcfsX/Fz/ALEzXv8A03T1/JrY/Gn40+Dv2VfhP8Jpn0e+8CeKv2UPFV6ltNpsP9pWFzpeiSm4YXo/frbXf7gYBwxX7uRmgD9kP2ef+C5nw++J9prF98bPhl4j+GUNp8O7v4o6VLey2t7Fq/hyz5kmtmgYHziOViZQccnHGeZ8Kf8ABdISeCPGfiT4u/BbXvBd9ovw9PxR8P2lxqFlcLrvhkzRW8c4nt8i1mZpo/3LqxAz6AH+fH4ZeEfi/wCCPhHqQ+N/iT/hNx4j/Y01m78Iyw2q2P8Awj+lRMDJps0EH/Hxhdo+2SYJxgggZr3f9ptYJvAmhW0H7zyf2FIj8jdvtWnYP04/GgD+gv4of8Ff/Avww1jUdJ1DwPqNwdO+CcXxpcx3UA/0SW4+zDTe/wC+B580ZTHQVwvh/wD4Li/CDxX8IfD/AMYvD3g/ULiw174YeJfiTtN1Avlf8IvN9mu9Lz/FP5wZQwAAGDg5wPxX/aiRL3xh4jnsHWSFP2CbYgo3G3+0gQR6jH6V8kL4Q1j4G/tG/Hz9mLS5mbwT4d+AHj3xJ4V3dVsPF2k2OovAP9mO5Mij3BoA/qn/AGBP+CtOl/to/FKH4I+N/hnrvwv8Tap4Sg8c6JFqk0F3b6roE84t0u7eeDb1ZlwrIMjJHSsbxP8A8FT/AIu3X7cPjb9jX4E/AHXviCvw6vtGtfEOu2Oq2FrDaQ6zardRTeRdbN21S4C+YM+W3K8CvzW/4J4CFv8Agpn+zPFEUcw/sgaJuMbZG/8AtFQ36/54r0z9mr4XftF+N/8Agu3+1T4o+D/xLXwV4b0DV/Ac/ijRW0i31A+ILNtGJS2FzPh7PaFkG+LLfP7CgD9bfgD/AMFD/hn8afgX8W/2g9a0u78N+H/g94h8SaJqsk5WYyw+GU8y4u4RH1Ro+QvUEFa+Lf2fP+C4Phj4kXN/dfHX4V6/8MtGuPAl/wDErw3qN5c2l+mseGtNUNNPstiDb3G35lgbd8vO4ZXd8SfslyRP/wAEkP2/LbA3t4w+LmY93zj/AIlw4PvXxf8AGZPN+Bv7Pyw/f/4Yz8W/x4/5l+DH+f8ACgD9j/hN/wAFzIPFGk+JNS+L3wd1zwK9r8NL74s+Go7nULK7/t3w3aLlXBg/49J5R92OYcDkn7ufa/2B/wDgrlpv7ZnxetfgX46+GGu/C/xDrfhKHxxoA1SeC7t9W0KaYQJcwTQbcZLAhWXkZOeOf58fiqzf2B8LJIP+Wf7COrGTY+Pl/skj+f8AnivoH/gi54d+I3w7/b9+E+m/H7xCPHt/4o/Zq0fVfCN99lXTv+Ee0Y3y50byE4uSn/P22HIGANp4AP7GfpS0UUAFFFFABRRRQAUUUUAFFFFABRRRQAUUUUAFFFFABRRRQAUUUUAFFFFAH//S/r4oor4c/wCCkvx5+IP7L/7CXxQ+P/wqe3i8Q+FNDmv7B7qLzoRMrKBuj43denT14oA+2r2ws9Ts5dP1CNZYZ0KSIwyGUjBBHpX5q/B7/gjx/wAE7PgJJ4xm+Fnw9TT28daLfeG9VLahqE3/ABKNRJNzY2vm3LfY4XLdLbyyOMHgY/mK+Av/AAUv/wCDmD9qz4S2Hxp+AHgrw7rfhnUpZ0ttQitdMg802bFJwI7q+R+GBB+QdPlr3df2sP8Ag7C/6JL4e/79aT/8tKVzo/s6t2P6XdG/4J9fsh6BqHhu/wBN8G2//FK+D7jwDYQyzTzQf8I3chRLp1xDJIyXUTBR/wAfAc8nnk15Z8Af+CRv/BPb9mOy8W6f8Hvh3BZReONLm0LWRdXl9f8AnaVcZ8yyQ3dxL5MDZ5SLbnAz90Y/n7f9rD/g7CH/ADSTw6PpFpX/AMtakP7V/wDwdh/9Ej8M/wDfOk//AC2p/WTo+oVf+fJ+8nwg/wCCN3/BOn4FeCvHHw/+Gnw/+x6d8RtMOia95upajcTT6Y2f9EinmuXlt4uekDITgZPyrj2vxt/wTy/Y/wDiL4tuPHXjLwdHe6rd+CZfhzNObu8Xf4ZlJLWO1ZwoPzHFwALgdBIBX81R/am/4OyP+iV+G/y0T/5a0n/DU3/B2T/0Szw3/wB86J/8taPrIvqFX/nyf0Z/sh/8Ex/2G/2DdZ1XxJ+yr4Cg8L6lrcAtby7a7vr6eSBSGEQlvri4aOPIBKoVBIBIOBXvvgD9mn4NfC74y+PPj/4H0f7H4t+Jbac3iO/8+eX7Z/ZNubWz/dSO0cIjiJXEKJu6tk1/Kd/w1L/wdk/9Es8N/wDfOif/AC0pf+Gpf+Dsn/olvhv/AL50T/5aUfWSlgK3/Pk/fHwX/wAEcv8AgnR8Pvj5cftO+GPh4IvGl3f3+p3F3Jqepz281xqYnW5MljLdNZurLcSAIYNqg8AYFaH7Nn/BIn/gnr+yZ4l13xZ8EPh3BYXniPTJ9Evftt5e6nEdMuSGmskivridI4JCBuVVG7ofl4r+f7/hqX/g7J/6Jb4b/wC+dE/+WlJ/w1N/wdk/9Es8N/8AfOif/LWj6yL+z63/AD5/A/fD4J/8Ea/+CcX7Pdn4xsfhT8OI7GPx7ol14a1nztR1G6MmkXv/AB8WUTXF1IbeF+/kFG4HPyjH0T4D/Ya/Zh+GXxC8HfFbwV4ZSz1/wB4Uj8E6Hdied2ttDhx5dphpCJAuOGkDOMnnmv5hz+1Z/wAHYf8A0Sfw5/3xpH/y1r7h/wCCe/7TX/BbrWf2if7K/wCClnhHT/CPw7m0u5EF7pNtYzO2qb4Bbw7rS6u2AKeacFcZ69sH1oxWWVnpY/pNDPijzpP8ivC0+Jehf9BDWf8AwXP/API1fIv7b/x1/aG8Kfs0eJNT/YpivNd+KOy1i8P2OoWMS29xM11B5vFz9lU4tvOI+f8ADgCgf9mV/wDnyfpbj3oxX8YKftc/8HXw+98KtA/GHSf6alQf2tP+DsAcf8Kv8P8A/frRv/llR9ZOj+z6/wDz5/A/s/or+Pn/AIJgf8FXv+CpXxX/AOCp0H7Bn7clto+lNZWOozarp9vYQxXEMsFl9pgxPBI6Y5U8Egg464r+wXpQea1YWiiigQUUUUAFFFFABRRRQAUUUUAFFFFABRRRQAUUUUAf/9P+vivyw/4Lcf8AKKH45/8AYsy/+jY6/U+vyz/4Laf8oovjp/2LE3/oyOgD+fr9gbxB8StE/wCCH/wJ034WXmuQ6prnja60mNPDV1aaffTLdanqQWEXN58gBuPJzjt7V9BwfG740+OPHvjP4deN/iXqthq2n654IsdmhXAt4LMnW7fw/rotWNp/pAvPtH2jocXXAxivX/8AggboGga1/wAEnfhJPq9nDcfYdQ1u9g82MN5M9vqt3ieD/psBwDX7Ep8LfhfuhP8AYGm/uD50P+jL+6P2j7Vx/wBvP+kfXmvnHF/WLn6/goTWGo6H5A/s/fHD42an+0doOkeIPGGq3tnbeNZPDI0+VsQSactrrhX7T/z83OdOgP2n/wCvX7eMPOjj/wCWleXad8Dfgro/i+3+IWl+FNIs9bsBcRW+oxWkAuIhdc3ADAZG795mvVdnFXFNaHYqai7xRD9mh9qb9mhFaRUGm+WO1B1KaM/7PDR9nhq/5fpSbDQPmRR+zw0fZ4avbDSlCOlA7oy2t4M1z3iXQ11HRpbaAfvYfJlh/wCu1tzBXY47VEy4+lRJDjoYWm3kGr2cWoW48qOX/ln/AMtY65nXUH9s6Jn/AJ+//aE9aVxotwLqTV9GkS1lm/eSxyfvYZKzpk8Q3+o2B1HTo4YrOXzZZPP82L/U1nc0jY3Da23/ADzqC5trfyeOldAUHas25i/dUjRSP5Wv2Zhj/g7R8c/9g+8/9MFrX9sz9q/ij/ZqGP8Ag7U8dD/qG3H/AKj1pX9rj9q+pwh+FZp/HY8dBS0g6ClpHIFFFFABRRRQAUUUUAFFFFABRRRQAUUUUAFFFFAH/9T+vivyz/4Laf8AKKL46f8AYsTf+jI6/Uyvyz/4Laf8oovjp/2LE3/oyOgD8+v+Dfgf8al/hd/18a3/AOnq6r9rYvu4r8U/+Dfb/lEv8Lh/08a3/wCnq6r9sYBha8Ct/GP2XLf91j6ImAwMUtFFI6wooooAKKKKACiiigCFlx0pmMjFWaiKelBtFlUjFJVjHY03atQ4FFcqDWZcj93+VbmzPas65j/d1PLYz5z+VL9mz/lbU8df9g24/wDUftK/tfr+KP8AZuGP+DtXx3/2DLj/ANR6zr+1yvpEfiuZfxmFFFFM5QooooAKKKKACiiigAooooAKKKKACiiigAooooA//9X+vivyy/4La8f8Eovjn/2LM3/oyOv1Nr8sv+C23/KKL45/9izN/wCjI6APz/8A+DfUf8alvhd/18a3/wCnq7r9r4fu1+KX/Bvr/wAolfhb/wBfGt/+nq7r9rofuV4Nb+KfsuW/7rH0RLRRRUnWFFFFABRRRQAUUUUAFFFFACYBpNq06igrnYVnXK/JWsEArPuQNmKCD+Un9nEY/wCDtfx4P+oZP/6j1nX9rNfxV/s5DH/B2v49/wCwXN/6j9nX9qle+j8azL+MwooopnKFFFFABRRRQAUUUUAFFFFABRRRQAUUUUAFFFFAH//W/r4r8sv+C23/ACii+Of/AGLM3/oyOv1Nr8sf+C23/KKL45/9izN/6MjoA+Av+DfX/lEr8Lf+vjW//T1d1+10X3K/E/8A4N9T/wAalvhcP+njW/8A09XdftfD92vBrfxT9lyz/dY+iJqKKKk6wooooAKKKKACiiigAooooAKKKKALFZtz92rqt2rPuTiP8qBPY/lR/Zy/5W1vHv8A2Cpv/Ufs6/tTr+Kn9nH/AJW1/Hv/AGC5/wD1H7Ov7Vq99H41mX8ZhRRRTOUKKKKACiiigAooooAKKKKACiiigAooooAKKKKAP//X/r4r8sP+C3HH/BKH45/9izL/AOjYq/U+vyu/4Ldf8ooPjn/2LUv/AKNioA/P/wD4N9j/AMalvhd/18a3/wCnq6r9rYzla/E3/g33P/Gpj4XD/p51v/09XVftZGx28V4Fb+Mfs2Ur/ZY+iLwfjmnb1qBTkUtI9GxNuWlyKgooFyonyKMioKKA5ETblFG5ahooHyom3LS5FQUUC5UWKKr04bjQJwRNVC5P7ur9Z1z9ygyP5Uf2cT/x1r+PP+wXP/6j1nX9q9fxS/s4f8ra3jv/ALBk/wD6j1nX9rVe+j8ZzL+MwooopnKFFFFABRRRQAUUUUAFFFFABRRRQAUUUUAFFFFAH//Q/r4r8rf+C3fH/BJ/45/9i1J/6Nir9Uq/Kz/gt7/yif8Ajn/2Lcn/AKOioA/Pn/g35OP+CTHwv/6+db/9PV1X7VxEbcV+KH/Bv1/yiZ+F/wD1863/AOnq6r9qY+Vr5+v/ABj9oylf7JH0RdBx0p+/2qsjY4qWouz0CXeKN4qKijm8gJd4o3ioqKfMBLvFJv8Aao6KXN5ATBlp1V6cpIOKpMCapQ471FQBngUyW0WKzbn7laVZV3xFj6UjA/lS/Zw/5W1vHf8A2DJ//Ues6/tar+KX9m8f8da3jv8A7Bk//qPWdf2tV9Aj8azL+MwooopnKFFFFABRRRQAUUUUAFFFFABRRRQAUUUUAFFFFAH/0f6+K/Kj/guDx/wSc+OX/YuP/wCj4a/Vevym/wCC4n/KJv45f9i63/o+GgD+bL/gkv8Asz/8FxfH3/BPfwL4r/Yw+LngLwx8Prw6r/Zena7Yebew41G5S53StpF5965V2ADkYx6Yr9DNc/ZJ/wCDlrRdNk1O4+PvwvdIvK+UaXGOkgP/AEAf8+3WvtP/AINxc/8ADm74Rf72vf8Ap9v6/Yb4lq3/AAh8uB/y3tP/AEpipfVz08LmNWl/y90P5xT+yZ/wctRM5/4Xv8K+f+oUP/lLX2P+y3+z/wD8FbPDmka7F+2R8RPDHii7mmtv7KfwyIbGOKEZ+0+f52kLnIxtABr9kyjeY3+9SCOSvKfqWszrr/l6fEv/AAqT9pf/AKDEP/gdD/8AKuvyk+In7L//AAcK3vxI1AfDb42fDez8PXt9cDTILzTBLPDbbTLb+fJ/Y7ZnA4OGx356V/Rt5T+tePePL57X4heFI1HnFV1OUQD/AJaSQ2uAP1NJadR/2pX/AOfp+D//AAyD/wAHJf8A0Xv4W/8AgpP/AMqKyrX9ln/g5JuoriWL45/Cr/RJ2T/kFvz5XTP/ABJ+PoOnrX09+xb/AMFCv2mP2gv2jtD+CXxQ+HNlZaFq2hXWqt4k0+01CC0k8nesCqLxR94ep+lftD4ZDC31hv8Ap5P/AKTxV0p32F/aVb/n6fzWaV+y7/wco6ppltq0Px1+FSR3UUcscbaYMfvv3v8A0Bf/ANdaq/spf8HLgfK/HP4U/wDguk/+U1f0Y+CkY+C9I/68rb/0UK6MRyVz69xf2lW/5+nyF8B/B/jDT/hp4f8ADX7Q0N1qfj2DTbUa3fafcNHp9/feWv2mWzHnJ+5356onGPlHSvbH8G+HJh5L6NqmP+vpf/kivS7m0t7q3+y3arJGf4HrGms/EOj28kumKb5VH7uCV/Ldf+2vNH1kr+0q/wDz9Pyz8ZfBj/gpLr/7X9p4v+DXjTw9ovwIULFe6DqC+brsk8MJE00Fx9kuetxjGbocA8V9SJ8Kv2iB11aH/wADIv8A5W19e6Xpc2l6fBpxbf5CYZvpWj5c3oatRF/alf8A5+n42ftT/s//APBXDxFqGiL+xr8SPCPhm1t4Lj+0z4mhjvpZpzt+zmDyNLIiAHm5/Dg9K+QLn9lT/g5LaL/kufwq/wDBWR/7iK/pT8qb0qtNDL5W7Hy+tHKL+06//Pw/hh/4Jy6B+0F4P/4ObfEnhz9rXWdK174hJo96mpX2kRmKymc6PbPD5CFIyMWuwEFRyDX94NfxffBb/lby8ff9guT/ANRyyr+0GvTPKCiiigAooooAKKKKACiiigAooooAKKKKACiiigAooooA/9L+vivyk/4LjHH/AASa+OP/AGLp/wDSiGv1br8ov+C5H/KJn44/9i8f/SiGgD5X/wCDd34gWWhf8EhPhHolzY3TTs3iDyAqxL9o265esfJDSAyY3YPA5B7Cv1E+MX7TXw48PeGta0rURcDUNItoL+/skED3NpatNGBPNB5wIQZz9Aa/CP8A4IheBfB0H/BMD4JeLfF/izS9Ei1efUok/tSVFvLVrXXbv5NFmZl+z/a8AXYGc9sV+o/7SfwVvdV8Gap8K5vEFpZWlrc/8JBataXjDW7l7rUbhnt7mDZhtNBvdnDH0wOKT2A/S+1vbfUbeK+sWEsVwBJG46eXU9c34UAHhfTBvz/oVt8/r+6rpK+c1O5pWCvNPiFfWegXOk+JpLV7u4sXm+zrG4j6wnPXjpXpdePfGHz10W0ureOSXyJJZcRR+b0hbtXYcJueJPF3ijwnoMviPxHZQ29la/NcyNfqqxRfd3ZMIHv2rrPDrIYdZNu+8fa5Np/7ZR/1r45/ar+E3h/40eB/EVr4f8QXV1qOtWsVrDpF75uoaFISGtx9r0cELcWmZxLdqOoiHI24r6n+HOjNoHhW78PNKsv2FhbB044gtooh+Py17AGh4HY/8IXpB/6crX/0UK6xK5HwL/yJOj/9eNr/AOihXWKQDzXj4sCSP/XL/vV/E7+xv8Sf2jfh/wCJ/gf+1B/wtzxtrt38RPjprHw61zw/rOrTXmhPpck8+Gh0+5GbaddoK85B7DpX9sCOFkV/9qv44/2Pf2Sf25fEfjD4M/Abxp8G9X8H+HPhb8YtY+JGo+JdUntotPks5JpGtre0ts/aCW3dOg69D8phEB8j/Fb9sP8Aa++GP7Pn7KvxR8H+MfEOqXul+NvidrviBW1a4/4mek+FdXhu7i3uW3D7TALRZlwQQBwB0x94/s8/tS/F7x1+0/8ADQ2fjnXNQ8Pa9+0v8RrCOEancTQ3Oix6bHc6fZn9+f8ARLTzRttlBtgeccDN79mr/gnv+0Nd3X7LXgz4zeAL6Dw5oWt/Ge38YfbIkMdpY+KLO5t7B5l3cwXay4H64rzz/gnR/wAE4/2vP2c4/wBnPw58QfBeowHwR8ZPF2q6vfbE2R6ZdaLDZ296/wAxIgumgwD16A8kVtYD42/4J8/ty/tPa94G+G3wj+Jfj/xJdajrHx08Ia7p95c6rcyTX3hi+n1DTLnT8gkzWgutOObf/j15zx0r9Cv+Cevir4xfFLxr8If2ytf+PVzb+NfiR488V2fiDwR4m8RyDTNR0K0uLi2+z6Bo+DEZrPbAyAYC5znHynwn4Tf8EsP2pNH8G/sFfEbWfAV/Z+IPhj431SHxlZbY/tFlpr+I5tUsLubDY+zxoJGPX/WLjrXrP7J37Fv7W3hz4nfAL9lvxZ8JNQ0KH4AfEjxD4ov/AIhSm3Gk3uh3U9zPb2+nTAm5l+1tOoeAjICqXHXy1FAcb8FT/wAdeXj7/sFy/wDqOWdf2hV/F38FP+VvLx9/2DJf/Ucs6/tEr0wCiiigAooooAKKKKACiiigAooooAKKKKACiiigAooooA//0/6+K/KL/guR/wAomvjj/wBi8f8A0ohr9Xa/Kb/guGM/8EnPjkP+pdb/ANHw0Afmx/wQk8AfEPW/+CT3w0vfAdo91H4gtda0jUmvpCIbW1XWtU/f2KiZcT/vjngZ2+1fop+0/wDs1eKfFnw18Q22g6deXkNyLG5EFz5Rvpr23NrEkLX51JQNNZbYfbLYj5gWKnnFeUf8G4X/AChs+EP117/0/ahX7F/EQZ8JXA/6a2//AKOjoA+fvFXjX4xeENYtfCnhTw5HfWNp4Xn1BruQSyA6hbbYksQIB1YHP4cCtqbx38WrE6TIfD6zw6lr82lssUdxvtLCH7TtvZ89m8mLHGP3o5r8nP26/iR8TfCP/BSXwJoMOq3Vj8O73w9ZnxCIbyWzEN99r1RdBwVI/dXOoeVHdDHOIM8DB/PbwnFYLoGh618R/G+u6Npfibw18GP+Eov5vEuoWzC01vTtVk1O4FwLoGCa7ntIVcgjPlDHWvFcrM71sf0bfA/4ufHX4i6/Ba+PfCcXhu1fR7LUZS0dz5qy3Ms8TW+CAAUEIP0Ne3eOGngudFuWuLyyhjuZTJLbQ+a6jyJuo8l8D8K/kf8Aj98b/jdOviqzsPG95qvgRby6h03WdT8Q32lXepZsPCORfxCzX7BbC3na5+02mMedN8q55+uv2bviF8QPC/8AwV7svhdpXieWf4b6zNfDS7K11q41fTba50rwdpU89rbz3P8AroH/ALQ+0DGMNCDitlUOA/oTOt2n/Qza9/4Lo/8A5Aq/ZeLfC/h7RrpRcaldyS7pzI9jO0m6VMjiC3A6egz2r0ve9Jub1P8A31XR9cA5XwVDcW/hDSLe5TypYrG1EkfoREAR+FdJk0lFcZ3JIXJof7n9ykp42eYu/wC7uSmgaR/Kt44+Mvxw0r/g4K0r4of8JTfr8K7TxbZ/Ch9FE9x9jbULzwsb5G+z/wDHvkXU45+9xnpXwN8MPjTqv/DeV5bfDn4r+Lp/jNP+1DeaIvhFNWuTpjeCUvpzfmbTz/ov2cQhgSOV2/KBjj7B8af8Ez/+Cgut+J9S/ativtXeaP8AaIg+Idv8OPs+nbZLOy1EW1vq/wBr+1ZDf2aAPs+cYHTNdu//AATu/ap/szX/ABJF8NydcH7XSfEewufM0/7WPCn2tZnv4ZftA/df9OxIfvtPbZHCc9/wS/1/9lv4pft7fEvw98Xfil4xn+MGhfGTxi/hzw0NY1b+zX0ezlPk+dajNkVU/aOCQcDGMAAa3/BIP44fGPxd/wAFNfid4r8W+Jb3V/A3xw0vxV4l8MRXF001pbroHimbSkjt7cnaoFsQcqBkdc9vcP2NbT9vj9kX4g/G/wCFsH7NWralo/j/AOJHjHxVpfi6DWNIiSG11MSfYR9l8wT4Jt4uGnBAl7YCnxD9hT/glz+2v+yV8Yf2QviX4r1PUfEmkeHNK8R2PiTQJILC3g8IprtpNdTRLPbuWuQ17Nhj8/KjbtTgAHinwV/5W8vH3/YMl/8AUcs6/tEr+MD4LD/jrw+IH/YJl/8AUcsq/s/r0QCiiigAooooAKKKKACiiigAooooAKKKKACiiigAooooA//U/r4r8qP+C4P/ACid+OX/AGLj/wDo+Gv1Xr8qv+C34/41PfHL/sW3/wDR0VAHzZ/wbo/8Jf8A8OfPhH/Z/wBj+z7tdx5nmb8f25fenHr+lfsv4o0Lx34h0NtLD6fG5lhkDETY/cyrJ0BB/hHevyO/4Nxht/4I3/CIep13/wBPt/X60R+Ivis3xpfwtJ4etx4LGlC4TWvtQ883/m7TbfZduQoj+bfnHagCDVbPU4dQsX8RWWmXcd5cxwOVibeAFeYffJ/5aoCK077wP4L1rRrnw/rGkWF5p9xFHbz209tFLDLDD/qopYjHgrD/AAjoO1bfjAfvNI/6/wBP/RclbKrgV5GK3A5HUfB/hXWIJLbWdLtLuKX/AFkc9vFIH6dQY+eif98D0p+l+FPCmhRW9po2mWdiloMQx29vFEI/+uQAGPwrpa8p+OGv614P+CvjHxb4aYR6jpGhajeWjnok9vaytD+oFB3JaHp+TSV/KH+wro3/AAXh/bh/ZZ8K/tS+Gf2rNE0Cz8WxXDRafdeF9PnlhFtcvanL/ZACSUJ4GOnXrX0bq37I/wDwcKaZplxqcn7YHhgRxR+ZlvC9oAMfTTmx+AP0osFkf0X0V+Nn/BGH48ftifE/9kC78Qf8FGJ7+w+IcXiK9i8rX7CHRLwaYI7cwt9lEVoBDvMwDbOcdwBX65f8Jl4R/wCgnZf+BMVA0dDRVOxv7DVYBc6fPDcxHo8DiQfpVykM8l+M/gbWfHnhmCy8Nyxx31pdpcxx3E00MMn7mWHypjb/ADbf3nT2HpXj3gj9nXVdF+IXhvX9Y1COTw7oXh+KyGjtPNNKmsC4hn+2m4Y5m4XbyPevsOiiwHxBqH7O/wAULr4d33htdeSTUX13UtTgkNzdCJbO5V/Is+DnFurLAO2FyADxXb/Dj4DTeGfEsGq+JYoroadpemwwXEN7dkvf2wYTzSwE7eflweTjg19TgYqGUYTy/wCH+7QooT2P44vgr/yt5ePv+wZL/wCo5Z1/aJX8XfwU/wCVvLx9/wBgyX/1HLOv7RK9g4AooooAKKKKACiiigAooooAKKKKACiiigAooooAKKKKAP/V/r4r8qf+C3//ACid+OX/AGLj/wDo6Kv1Wr8qv+C33/KJ745f9i2//o6KgD+cv/gkJ/wX0/ZN/Ys/4J7eA/2ZviZ4P8daprXhl9TWW50bTLe5s5ftmp3N4oikkvImJC3AUgoOQcdq/ThP+Dor9hSSQRjwD8Tef+oHbf0vq+fv+CKXwB8c3v8AwSE8CfGjQNZg2J/bjw6WLWXzJGGr3VuQbhblMZ2nGEAFfpT4d+Hvxs1PSjrVv4R16KFeYmufsoaUe9t9r4r3MvwWHxG7Ph8x4nzDD4lxjh7o+V9c/wCDk/8AYv1ltPe1+HvxPkNvcxzfL4fj43Qv/wBPfPDjgdeo4qdf+DmX9jFeD8NPir/4T9v/APJtfUmnaxeukn71/Ohl8mb/AJYzRf8Abv8A8sK+W/2hfj98Qvhb8VPBPhHwpJFLDrJ/fwy2dzc+aP7QtbX/AI+V4tf+Pn/j5uuK9PF8K4fZHg4TxGxFWv7D2Az/AIiZP2LO/wANfip/4T9t/wDJteYfGf8A4OPf2M/Hnwc8YeCtP+H/AMTIZ9V0LUrBZZdCt/KhnnhkgAm/0zjlxnt2OKz9F/aW+PXjK7gXQ7/SbG3m8Sazp48yxM/nada6b/aemYuBdY+046/yGK0fC/x71v8AaC/Zp+J2r6iCPsPh6eCHNqbD/j70UXVx/wAff/Twa5P9VaFjsXHlW9j1n/ghn+1X+zz8H/8AglN8I/BvxU8XaboOqw6XrGp/ZLiQLMLFdU1Em42/3cQS8+1fquf20f2V/H86+A/CfjOzv9X1uCY2NoBIGugBz5AmADfhX5Zf8ES/2Y/gJ8dv+CSvwc174o+HYNbuRaaigkmMqfu7fUtRt/K4I4AmmHHHP0r9aF/ZP/Z1+HM3/Cd+FPDkFlq+i2DQWd15s0hhQRYwMseMV8Fr9Y8j9aTVj6RkihbxXf8Amor/ALi1+8vvLWysUX/LJI/++a4y48VeHLfxXqMU17FuS2tSQjb2AJmxxHz2pJrfVPFI+yy+dY6e3392Iricf88+mYoiPpN9O5i99BIteFPs01tdatANq6lcfaFX/pntEMX5iIV1FH8Hl/8AjlFMYUUUUASB+1Nm+7TlXBBps33aaE9j+N/4K8f8HeXj3/sGTf8AqOWdf2jV/Fv8Fv8Albz8ef8AYNm/9Ru0r+0ivXOAKKKKACiiigAooooAKKKKACiiigAooooAKKKKACiiigD/1v6+K/Kr/gt//wAonvjl/wBi2/8A6Oir9Va/Kv8A4Lff8onvjl/2Lcn/AKOioA+J/wDghdr+m6B/wQT8EatqjrFbWieIJJWPQBdcvetfq34Q/bA+C6+ELNTJqUc8MKxfZZNMulnZ1GMBPL61/LH/AMETL/wZ4h/YS8D+C9JFrrPiO2bWLi402zjF7e29sdQnAuJ7W1/0vb0C+2Mdq/bax8NeLoxg+HtbH10q+H/ttX1mX5Lhmk5H5bn3G2Lw+KeGw2HvY9C8d+Mz8SfG1144trU2MVyIYYbYviX/AEY586YDpMOgHYCviP4xWvw98ZfEuHQPEVhqd5e6BDbR4tL42Fvdfbbn/Ru4+0f6TbV9X6nnwTox1/x9BcaFpqDy57vU4ZbOCEepuLnpTdM1Dw54o0+DxFos9lqtvcDMF3aGCeAj2uBX1kZYX/dz8sqYnFPEfWMTofGOjfC34LeF/FY8K+EvDFxBfaZfafaSxC9gH+kXenXFr9o/6eP9EuJhVm68H+HtA/Zq8dyeAtNubKLVvD1xYwQXdz508v2PTv7Mtrf8rcV9rG3tbhftJijm/wCmvl10XgtRD8QvDYx5X/E5tuP+2hrgeF+roWX1vb4pH4f/APBLf4Y/8F8tH/YW8CaH+zx4m+Gvhfwnaw30dlpniyzvY9atB9qnLC5RLRlHz8rznbIMg9vum++HP/By/PA9s3xG+Cbq/wC7dPs11gfnYkfhX9AY8O6BqWu6tc39ha3En2hPneGN3/494h35qe68J+E0xNNpln+7/wCneL/Cvx6WLf1g/qVbH5Uf8EWP2F/jH/wTz/Y9uvgN8a9V0rV9auPEd9rAudFnnnt3guYLdIh5txHE2792f4AMY68mv1trl/BtraWGhpNaxCGK6kluERE8vaJ5S3T8VrqKbZ6CCiiikMKKKKAFHBpZvu0g6ilm+7TQnsfxt/Bb/lbz8d/9g6b/ANRu0r+0qv4tvgv/AMrefjv/ALBs3/qN2lf2k165wBRRRQAUUUUAFFFFABRRRQAUUUUAFFFFABRRRQAUUUUAf//X/r4r8r/+C3H/ACih+Of/AGLMv/o2Kv1Qr8qv+C33H/BJ745f9i2//o6KgD8ov+DcT9jv4DeBv2I/h7+234B09tI+I/i/+1ND8Qauk8k32mwTWrhUt/s9yxt4B/otoN0CBjt5yc1/TdFpniH+PWrpvrHbf0hr8U/+DdSzhv8A/gjT8KbK4+5JL4g/9Pl7X7aaVqMsj/2bqgEd7H/Dx+9x/wAtI/auR4u2gJHy3+2N+z34D/af+Bmr/Az46wv4g8K6tbSz3liXazMslgFuIP39sVZds6K3Hp7V/PJ/wQh07V9b/wCCdPw+8MaW0K3F/qWtRxmQ5UAXbd/+ew7QdxzX9RXxVC/8I3Pn/nx1P/0jkr+Tf/ghB8afgh4W/Y9+E2jeK/G/h7QdV0fXNcvBaalqdvbSHynYeSA5Bi88XIb3H1rv4cx9pM8Di/ALEQWHP3vX9nb9qVf3zweGEfdvAW/vpHQ+xNsK5vwjFc6X8S9D0bWNn2yz1nT4pPJ87yfuHp5/9KtQ/wDBSr9m9fjtfWf/AAlfhYWj2EVmmdd0xLsXEF5cRv5rm78hYB2XPnA5+XtXxf8AtO/tJfASLw38TvsHxL8NXGpG01CaGXT9Ytlkhnm0/wA/yYJweDbgbvYc4r6fBY76zofGcScL4fDPDvDI/ev+3tE03WtTg1C7hgkEqvsZwHwII+1RX9veeIh9nlV7fT8fvN3yST/9M/8ApnF+tflb/wAEGda13xP/AMEqPhT4w8XX1xq2q3sGqS3V9eSme4lP9p3f3pmy0nAA5JPbtX7AS96/O8dH/aD9gitAqvRRTKCiiigAooooAVetLN92hfvUTfdpoT2P43Pgv/yt5+O/+wbN/wCo3aV/aTX8W3wX/wCVvPx3/wBg2b/1G7Sv7Sa9c4AooooAKKKKACiiigAooooAKKKKACiiigAooooAKKKKAP/Q/r4r8p/+C4XH/BJz45f9i43/AKPhr9WK/KX/AILicf8ABJv45f8AYut/6PhoA+cv+Dcb/lDn8KP+uviD/wBPl7X1P8UP20Lnw/8AErX/AAFcfDy81fw/4c13StAfXmnhjhj1a+m0wAFDGGhVYNURoLgcEwyr8uFJ+UP+Dcf/AJQ6fCn/AK7+IP8A093tfTXxR/YP8cePviD4y8T+G/iTLoekeJ9W03xLb6UNOS4ii1ix/s0Ce4ZmBuIANMTyLf5QDNMcn5dvkVN9Dtjax9xePvDOnxeCtauJLie4ig0y9RUml3x/8e0kb5/rX8uf/BDj/gk//wAE7/2o/wDgmr4G+NXx3+F9j4j8S6rc6st1f3M9zG0n2a+mtoh+4uFAARAAMDnnFf1J+J4NVsfhFqdt4ruo729h0Wdbq6SPyY5JRbP5soiyfKBPbPHSvxw/4Nszn/gkD8OP+v3Xf/TrPTWxxHsv/Dhn/gkX/wBET0z/AMC9Q/8Akmn/APDh7/gkZ/0RPSf/AAKv/wD5Jr9c6jZuwpXO5JHknwL+BPwp/Zq+F2l/Bb4H6ND4f8M6N532Owg+ZIvtEzXE2M56uxP416vk0UUigooooAKKKUAnpQAlFO2GgIc0AKFPFJN92pqil+5TQnsfxt/Bf/lbz8d/9g2b/wBRu0r+0mv4tvgv/wArefjv/sGzf+o3aV/aTXrnAFFFFABRRRQAUUUUAFFFFABRRRQAUUUUAFFFFABRRRQB/9H+vivyk/4Ljf8AKJr44/8AYun/ANKIa/Vuvyn/AOC4X/KJz45f9i43/o+GgD5t/wCDcb/lDn8KP+u3iD/0+XtftxdXtjpwBvZkg8z7m8+XX87n/Bvr478BaV/wSY+GHh/xF8QdO0ScT62TYJdWNtcxg61d483zv3vPUYx8pHbFfRXxzu/CPjz9vP4PeHNRk+H/AIo+Fg0HW77UbvWdYtp9Vi1Q/Zfs9xZox4z+4UG3OJlnnLgYUt5E9zujsfqt4211dc8F6tpfh2yvNRmu9NuY4WhhcRkzRcASy4XnjFfnX/wRH/Zv+Iv7KX/BN/wT8FfixHbJrVjc6rPMLScTwgXV7LIuJV46MOnFfRmoeAP2DpLEgp4RkaGKXyh9vt+B3/5bdP5V67+zEbU/Ajw8bP8A1XkSY/7+mlcFFHvjMMYFR0UUFBRRRQAUoGeBSUoOKAJAmKfTFbJxT6ACiiigAqOX7lSVHL9ymhPY/ja+C4/468/Hn/YNm/8AUbtK/tJr+Lb4Lt/x16ePB/1DZh/5bdpX9pNeucAUUUUAFFFFABRRRQAUUUUAFFFFABRRRQAUUUUAFFFFAH//0v6+K/KX/guL/wAom/jl/wBi63/pRDX6tV+U3/BcP/lE58cv+xdb/wBHw0AfnR/wQE+K/wCyz4c/4JO/DHQvibrHhu11aO51zzIdRNuJxnVbsjIdM/cK+vGOa/R/XPjN+xHc/tJ+CZrPxH4MMJ0PxOpIew2eeJNFL4fy+Dtxn5hkY4OBj4D/AODfX47eBPBn/BJP4Y+HdZt9ce4trjXPMNjoWrX8POrXbj9/Z2skfQjoxweO1fpZ4m/aU+GVz+0n4KvRD4j2x6D4kjA/4RfX+cSaYx/5c8cBe456DmvHm9TuWx6BffGn9iMafM0XiPwXt+z5T95Y42/989P84r0X9mM25+Bfh37LJ5y+RJhv+2prLu/2lvhqLKdDaeJOI5Cf+KV17oPb+zq8j+GHx+8L/Cz4R6dpfjrTNbsmsYUEsp01xEPtU5WAfKCO4qbjPuSivmjVP2pvh7onktrOm63Zwz3lrYCaXTnEST3lx9ltwTju2PoK+nf4vwqhkNFFFABRRRQK49OtS1Xpw3Y4oC6JqKiy9KGbuKAuiSopvuVJkVDMfkpoTaP42fgz/wAre3jr/sHzf+o1aV/abX8V/wAGD/x17eOf+vCf/wBRq1r+1CvXOEKKKKACiiigAooooAKKKKACiiigAooooAKKKKACiiigD//T/r4r8qP+C4P/ACic+OX/AGLj/wDo+Gv1Xr8qf+C34/41O/HL/sW3/wDR0VAHzb/wbjPIP+COXwoA7TeIMf8Ag8va/UfxVJL/AMNReBwGYD/hHPEmR2/1+jV+XP8Awbj/APKHb4S/9dfEH/p8va/Sj4oatH4P+N/grx1qtteSaXb6VrljK9lZXF55dxdPpzpn7MrFRtt5e1eTLc7UtD6f3t6mvn39qJmk+DF+sjMP9N0jp/2E7Spv+GjfhljPla7/AKvP/Ivav0/8BP0rwb9p79oz4aJ8F78+XrwMd5pBO3w/q7HB1WyXgC055I4H9KlyHbse7/tMySr8P7UqzD/ipvDPT/sNWde8z/61v96vlX4weOtE+IHw0t7/AMOi6hhh8VeHIj9utJ7M/wDIVtOguUQ498V5B+zZ/wAFFPhR+1R8btf+BvgHw/rtneaDZPqE95qFvElkV8/ywFYOSSTz06UnJXGj9BqKIY43lWOT+9X87H7Ev7Un7QnxE/4I2/Hn47eNfFmpX/jHw4fiJ/Z2qTuDeWLadbyyWXknH/LseVH8PAHAAqrBc/ovor+Mz4ff8FEP2nvh98MfGOv+OvibrGrvr37Kdn480W4upFxZeI/P/sl5oTt/15u2Q57nqKyf2r/2xP28vgd4D+N3giD4i64uv+Cfgx8L54LpLj95FrWo6hplrqV2O63N1584ZupBHoKn6mcB/aTRX8P3ib/gsT+13Z/CzxB8S/Dfiq/t9c0D9nXTJL+0ufs8iQeMLfxknhrUNV8gqUW4wzMPl28rlSAor95v+CbXhn9qX4UfGv4i/BX4tfFeX4veBbDSNDvdJ1LWtSs7vxBYapcwk6haXVvATdQwnzFKC5A2qF2E5Y0fUwP0p+PHi/4g+DvBttqXwzht59Qnv4bb/Sbee7VYpo5P3u21+bg49v0rwD4S/GX9o7x78UPD3hTW9Oi0zStR8MWHiC5uJNMuAqyPNtuLT7QWCC4Ax8pHA5xX49eLv23P2pdH/wCC++kfD+PxNdw/AyDXIPh/caQjL9kk1u88OnUkbbtzvFy8XOeACB1NfGPw9/bb/a+tv2wbjxPpXx31XWNRn/aUk+Gy/DK4+xXccnhCS5Jluha4NzAtvEDH9pChVI+8PmzP1N3A/o/1r4+ftI2vwl1PxfYeHof7V0/X9W06OGWznPn2FosgsL0KDkC5Cpcem1to6V6N4C+Ifxr8W/EKy0HUFgs9ObQLHW7oS6ZPFKrXZINl5xfYJ128jGR6V+H3/BNz4l/ET9pT9sr4iXXxT/ar1m31zwf8V/E2k6Z8M/tVgseo6HpcmYW+yt/pXkDcy5UYAhI65aof+Cb37bH7V/xW/wCCtHxX8IfF/wAU3Wp/CvxcPGP/AAg9jIy+RbnwvrNvZr9nAAx/oxYtzyea6uWwHyn8F/8Alb18c/8AXhP/AOo1a1/alX8WPwX/AOVvPx1/2Dp//Uata/tOr0QCiiigAooooAKKKKACiiigAooooAKKKKACiiigAooooA//1P6+K/Kv/gt9/wAonvjl/wBi3J/6Oir9VK/OL/grn4B8YfFL/gmp8Zfh/wCANOl1bWdV8OzwWlnAMySyb0IVB3OBwKAPi/8A4Nx0z/wR0+FH/XbxB/6fL2v23udXtrKb7FFmW5x/qIuX/wDtdfxm/wDBJvT/APguV+yVd/DL9l74m+B4fD/wM029uBqF9Eml3uoWlteyXF3JMj209zOT503B8hgBxwOa/re0jxT4L0zTkt7fWNXyvEsrafMJZJP+esv+i9fwArycW9dD1IYWu1sd5f6f4gvLdrx7wxXcI328ULSCLfjgS4x5o9sCvJv2kLttR+Bs1/ZSsq3F3okkbBsddTsz1rr/APhP/Ckf3dZ1b/wXzf8AyNX8w/7cvxU/4L9zfHPxV8Of2QvA9t4i+ENrd2CaDdajZ6Ut1cxWqW058z7VPBOf9JyMtGvA4x1o5egPK8Rv+h/Sx+0zJdReALOWFsSJ4m8NbNzYH/IZtK6T4cfBX4N/BqXVG+EPhrTPDY1abz73+zrdLfz5jLK26bYBk7ppDz61/Gz8R/2jP+DpbxLoqaZ4t+G+ki2W/sbtQLLQ2/f2k63Vv967bo8A7ZwOCDivcT8Xv+DuybMi/C7w+N3zcDw1/XUv581P1LW5yVsP7LSt/kf2FpLsmV/uLur+NT9jT40/EX4e/sA/Gr/gnd4o+CfxPj8ZeKofiNcWmp/8I3P/AGEftNheS28f2lgHzcFBbqFtcF5FAwDWo3xX/wCDvI/8020MfQeGP/lhX6pfsC+Lv+Cvnir4c61cf8FC9L1bw14mXUNulReH7Pw7Namx+zD5pdtzJ+88/OBkYwOx+XswmCOY/np/ay/Ym/ad8afs9fsYaF4N8Fa/HdeMfAtt8N/Gwi066MmlWEWtafdRC/AT/RQZHkOZAv3Wr7L/AOCsfwM/aB8b/HL9sK7+H3grX9VtdX8C/D200VrDT554b+bT9e024n+zbARcNbKHLBclQDkAV/RrbzftDR/fvvHDb/8AqGeGRj8pa+e/gTrP/BRLUPGfj62+Plv4jsNDt9dMPg6TTrHwz5tzpHkRYmvP37eXN52TghPpjhcmB/NF+1z/AMEz/wBokftg/tx+Gfgx4F1vUNG8ceCbbxJ4evFtZza3txc67omuahY2rKCGnM0d6IrYfOfKxtxiv2M/4JK6Dd/Fn9vH44/tm+Gfhpr/AMO/CPinQfDWjRDxJpY0abU9Xt0P9qTragkAqygMVJBJz1JA/WJ5fj2kfN141/4Bpvhr/wCO14J8Gdb/AG/tS+InxHsPjfZeIrHw9a6xFD4MntbLw3JLPpf2ZczXe24J87z9/G1MDHHOAXA/nj8b/s+/8FC7vx1q37ZFno0sngey/ahh8YJ4YGkXP/CSy29jd/2cl8Jguf7P+yfuwmNv8e4LSx/sX/EHQPHWuftGeHvhhqtn46tP2yvtNnr0OmXMWoHwhcXUvmzebtydLdzgsB5eTycV/VD5/wAePu/bPGm/+/8A2d4cx+XmV+Kv7WPxX/4OStA/aF13Rf2O/h/Y638O4RbDSbzWo9AhvJB9lTz/ADR/aa8/aN+OBwBwBQgPKf8AgnZ4y8Afsy/tSfGLw/8AEz9nHxjfeP8AX/iz4y1fw744i8Ima1g0e7Miwp/bMgFzDbuYJPuBkPmZ7tj5y/4J6fsp/wDBQj9nz4n/ALF3xt+NlkNQ8LLeeK7OTS9O0i4j1XQ4fFUc9xLNr021Thrhgx3hRa7dp+bivUP+Fyf8HeYX/kmXh/8A768N/wDyzqv/AMLe/wCDuzGP+FX+Hufvf8i1831/4mVXyMDlvgt/yt6eOvN/6B8+P/Cata/tPr+MD/gmJ+wn/wAFbV/4LHr+35+3t8P00FNY0/UU1TUbW90loPNOnizt0W3s7q4fkKg4HbJPav7P67gCiiigAooooAKKKKACiiigAooooAKKKKACiiigAooooA//1f6+e1eC/tOf8kB8W/8AYOl/9Br3rtXg/wC0x/yQXxWP+ofL/KgvCfEjxbS28jTbQf8ATGGtqJ/IGK/I39q34jfG/QPi/wCJdJ+HGveIdG03wx8In8R250uTTo7C11Lz7q3tp9Qtru2N3P8AdzgfL8vSvnL4e/tAftG/ELwt4U8W+KPiDr2g6tb+JPF2harDavawW8v/AAj3h59T/wBJtjacH7WnGMf6JXzvsEftKxdJxP6Bf+WVV5Gr8MP2Y/jb+1b478U/D3w3rHi7UpbLxFrS6bqlrrS2o1aGCy0yw1+4/wCPTAzdmf7NjtaYPWv3XlPpWEZXNqMudnmfxP8A+Rfh/wCwjBX6AxEiCPH90fyr8+PigT/wj8H/AGEYK/QlP9RH/uj+VenlO58Fxkv3pZpMD0paK9Y+KCiiigAooooAKKKKACiiigAooooAKKKKACiiigAooooAKKKKACiiigAooooAKKKKACiiigD/1v6+e1eC/tOf8kC8Wf8AYPl/lXvXavBP2nOPgF4s/wCwfJ/Kk9jTB/Ej8uvF3w5l+Juuad46+IPwD0fXNbsNLNjBd3msaeZxbnrbZwf9G/ziurs/CutWq+RafArShEb64vs/2vpX/Hxd232W4uenW7tv9GPtweK7zT/Df7VosrTPinwpxDz/AMU5f/8Ay1rSj8N/tXf9DT4U/wDCcv8A/wCW1fO2P3TDNextp+JwHhzw94g8MXNnd6B8E9OsZbK48+GWHXLEeTOLX7J5/T/n2ghtvpx0FejP4++OfQfDVP8AwobL/Cnf8I1+1Zj/AJGTwp/4Tt//APLWon8NftX9B4l8Kf8AhOX/AP8ALasbM6rry/E4zxZ41+MOpQ2Vlr3gRNLsf7Rt/OvP7asZvJH/AF7/ANK/W6H/AFKf7q1+R/jXQv2hdPgsrzxjr3h6fS/7Rt/tkFpo1zBPj2uP7V4/Kv1ttv8Aj3j/AN1a93KUflfGv8ZWLVFFFdh8iFFFFABRRRQAUUUUAFFFFABRRRQAUUUUAFFFFABRRRQAUUUUAFFFFABRRRQAUUUUAFFFFAH/1/6+K5Hxz4M0f4g+EdQ8E+IPNFlqULQTeRI0Umxuu2RcFT9K66igEfIVr+xR8MLNdlvrfioL6f8ACQaj/wDHasD9jD4aL01zxX/4UGo//Hq+sZf3MZlkIVV7ntXDWnxJ+HmoW9jdad4g024j1STybJoruFxcyAf6uEh8SNx0XNB2/wBr4hae2PDh+xr8MwMf214p/wDB/qX/AMepp/Yz+GR/5jXin/woNS/+PV9Gf8JNoCaZLrT6hbCygysk5lQRIRwcvnAxVlNY0s3smn/aYvtEMYlePem9YuzkZyE469KX1UP7XxH/AD9Pl7/hi/4Zm4gupdY8TTPbyxzR+brV5Jgp0+854r67SHagT0rh7L4ofDXUpoLbTvEOmXEt18sKRXcLmT/dAfn8K7kMccUzkliq1bcKKKKCQooooAKKKKACiiigAooooAKKKKACiiigAooooAKKKKACiiigAooooAKKKKACiiigAooooA//0P6+KKKKAPI/j14ffxX8EPGHheN7mNtR0S/tQ1jF59yPNt3T9xD0kl5+Re5wK/n3+EegaxY+I/hh4y02zvtQk0K9Xwz4ZgXwbHaW1/oj39r/AGlNgqh069s7bzttxbBFYQf6+5ziv6ZKKBWP539D+Enwx1T/AIJ86n4h0bRLnw4uo+KLLW4tDufD2pXunaXNpcUVrYafremXA+13sAtbWC31W453XTvdDbjcsvwO8OaPbftA6w6eEtT8JeJda8KeIZLnTUs5DMLSfSdCSx086kBt1A2hgnW1wflGQAMc/wBDdFAWR+NX7P37OA0Gz/ZQ1rxV4Q0ttT8P6JqBubux0NbFbGS60yKSMyp1tJWK4kHe46Yr9lAMDFLRQMKKKKACiiigAooooAKKKKACiiigAooooAKKKKACiiigAooooAKKKKACiiigAooooAKKKKACiiigD//R/r4ooooA5Txv4w0H4eeC9X8feKphbaXoVlcaheSnolvbRmWVvwRSa/D74Xf8F0vCni/w14j8YfET4TeIfBmnJ4C1X4k+D5by6srj/hJNB0hSZin2dmWzujgYt5S2FwxbBXP7U/Fm48A2nws8S3XxVMI8MRaVeNrBn/1X2AQN9p3/AOz5O7PtX8e9n8Qrr9mH9nX4vfsF+G/Ea/ET4K+O/gL4t8ffCTxBLAYdS0zS5bW4abSLjeBO0OCHVnVSMAEDlIgD9gfDn/BZ3UbX9l7xV+2R8bPgZ4t8CfD/AEPQrDWtL1C9nsp/7bOqzQQafBZJC+c3BnRt7YVFOTVHT/8Agt14c0L4Y/ETUPjb8J/E3hD4k/DfU9C0e68CCa0vr69uvE/OjraTxlUk+0DJYAZQDo3FfkF+018KP2ifh5/wbS6xrvxq+J7ePdF8ReHPh5c+GtKbSLXT/wDhHrQ3unt9lFxbMWuxtZE3yYI2cda+w/8Agr/8WP2e/FvxCX4UfDzRRp/xF8HfFL4UzeMNYFpDbm9tr2S5bTVOofeP2dc/M2BHu2jjdgA+j/Gv/BenwL8Iv2cfHnxX+Nnwr17w14z+FviTS/DHijwa13Z3E9pcatC09tPBfRn7PcW7LFJtZQGO3O0KVJ9P+Nn/AAWv+Enwm0P4ua9oPg7VPE0Hwqh8DzqbW4t0Grr47iE1j9kzniJCN2Rz/DxzX4aftf8AgnQPij+2f+098PfFNv52g698dPghpl+h/wBXJb3VrPb3CH6hufqK+AvDdj478Pfs+ftk/CHx86XGqfDbxT8KPAYukXYJbfw3rV7pdrNj3t7aIe4waAP7ev2Hv29NB/bMu/HHgnU/B2tfDzx18NtQt9P8R+Gtd8k3NobyDz7WZJIGZJYLhAdjDGdpONpUt8n/AAc/4K7eKvjZ4u8UyeGfgR4qTwL4M1PxDpep+MHubEadFN4egnmm+Td55DtCsSkLgNIMnIxXJ/8ABOv/AJS+/t37Pu/bvAH5/wBj3NfCH/BOT4bftHL8A/2q/iPd/EC2f4YN4i+KFofBf9lRmb+0Mvm6OobhIBgEfZwpXBznsAD9idY/4Kj/AAh8M/8ABMyy/wCCnHinRr628O3+kW2oRaPE0U14893MtrDaK4whYzsF3cADkjjFeC6d/wAFq/BnhT4TfFzxN+0b8MPEfgLxt8GpdGg1jwgXg1K6nbxDgaQLS5tj9nkNyTjGRs71+UX7QYz/AMGn3gWP+9p3hUf+V63rz/8A4KZZj/ae/bZlb/Vi7+CGfp9tgoA/XvVf+C3ukeAvgh8VPGvxm+EWv+FfHnwa1Hw7p/iPwbJeWdzcL/wk7KNOltb2M/Z51cEtjhgByBkV9p/sM/t9aL+2ZrPj34eav4L1r4c+OPhnd2Vp4h8Oa55Dz2/9pW/2m0lWW3Z0ZJVWTb0Py5xgiv5if+CmMF/efFv/AIKLxaPP9lum1T4GRwXGzf5UxW32N/wE8474xX61f8Eb9J+IXgb9tf8Aa/8Ahd+0DrNv43+J2m614VvNa8Y20IsY9TtbzS5fsNsNPT93bfYhDKPlJ3eb6KCQD+hmiiigAooooAKKKKACiiigAooooAKKKKACiiigAooooAKKKKACiiigAooooA//0v6+KKK+Hv8AgpL8efHv7MH7CXxQ/aA+FslvD4h8K6FPe6e91F50KzrgKWj43Yz0PHrxQB9oalpmn6zp8+k6tClza3KGOWKRQyOjDBUg8EEcYr8vPgx/wRd/4J1fAGDxpbfDDwNJZr480C+8K6n5+p6hdFdE1L/j5sLUz3D/AGeJjzmPD5/ir+aH4Cf8FHf+Dnb9p/4YaR8a/gN4K0rxH4W1vz/sV/BpumpFN9kna1m4luUYYmVlOQOVO35RX6VfsG/Hb/g4S8QfHu3039vPwVLo3gGTTbrfc6Vp2jvci8wPs/CXRI5zngjoMdwAfpf8Kf8Agix/wTg+C/gzxb8O/Anw/ePQ/HWlJomtWd1qup3kc9nHN9pjVftF05gKzfMDAUIbB61r+GP+COv/AAT08J/AHxj+zZpngQSeGPiBLb3GvC51C+ury6lszmyY3007XI+yH/UBXAXnj5mz7V/wnvxekx+78WxfXRtN/wDj1aS+MviwrxCT/hKMfx/8SjTsfpNx+FAHjfwz/wCCS/7DXwo+Eth8GvCnhac6VZeKrHxq0lzf3U13da7pxDW93c3DSb5SCOUPyHn5a1/ij/wSu/Yc+MrfE/8A4WB4ON3/AMLhu9KvfFQjvryD7bNoxzZuPJlQw7CST5W3cSSeTXC/sv8AxI/ba1T4F6LqP7U2m69p3jrN/wD2lbabpOmNbjF1cfZdu25kH/Ht5PRuT1719BHxn8W+3/CVf+CfTv8A47QBqfsjfsPfswfsMeCtQ8Bfsv8AhePw3Yatdm+vibi4u57mcjbumuLqSWZsDgAthewFbPwt/ZA/Z++Dfw38WfCTwFof2bw/451DVNU1u1knmmF1c6xxfMxkZmAkHy4BAA4GK/Nz/goT8Wf+Cpfhf4L6Vqn/AAT00PU/EHjOTW7eO8tNZ0rS4ok0v7Lc+dKC9wgz9oEGO+M44r8fh+0j/wAHcH/RLtM/8BNF/wDk6gD91Phf/wAEPf8Agmd8IND8T+FPAvw8kh0nxlpB0PWLKfV9VuILiz89LkAxz3bhZRNEjLKu11x8pAJz6P4F/wCCS37A/gD4I+Nf2e9N8Cpe+HPiMYP+Ei/tK8u768vvshzaB764me6AtP8Al22yDyjyuCSa/lt8E/8ABTn/AIOYfiL8aPGX7PXgvwVo2oeMvAUdvJrulpptgJLJbxQ1uSzXSxtvU5Xazcda+/v2UPj/AP8AByfrX7RXhHS/2tvh/DpHw6nvJBrd1pthpElzHAIGK4C3rEfPtwQM9eD0oA/YHwx/wSA/YC8KfBTxH+z/AGHgyebw74v1Ky1fWftGq6lJeXt3prh7Jpb43P2rFuwGxRIFHPHJz9afDr9mL4M/Cr43+Pv2ivBOltaeLfib/Zv/AAkN2Z5pFuv7JtzbWmIWYxxbIyR8ijPU15ufHfxY2+YI/Fe7+5/Y+nf/AB7+tObxr8VxJgf8JX/4J9Ox/wCjaAPsvIoyK/Kz4EfEj9trUIPGE3x7sPEFl5HinVIPDosdI0t/N8P8f2dNPtuG/fYzu+72ytfQo8Z/Fvv/AMJX/wCCfTv/AI9QB9nZFLX49ftq/FD/AIKG6J+zbrWqfsTaXrWrfEaO4tP7OtdV0nS44JIftI+0Z33CqMW+cd+mACePw4b9pL/g7fH/ADTHT1+llov/AMmUAf2lkgClr+M3/gm9/wAFWv8AgrX4x/4Kz+G/+Cfv7d8em6Y0sN/LrOmJp1pFdQBdGm1O0xNasyjP7k8E/KcHnNf2YjoKAFooooAKKKKACiiigAooooAKKKKACiiigAooooAKKKKAP//T/r4r8sP+C3H/ACih+Of/AGLMv/o2Kv1Pr8rv+C3XH/BKD45/9i1L/wCjYqAP5nPhr8cPij8Ef+Ddn9me6+GXj29+Gg8S/FJ9A1XxBp0nkTWek3epaw1y/mjoE2Bz04XHSuv8f/tr/tVH9ky30eH9oPVD4Ytf2j7D4f2HxZiEFvJd+FbiwuTeXEs6Ytri3tZMSiTdtO37wUDHnnhLwL4m8cf8G7v7K0nh/wAGat49s9E+Liarquj6JpsupXE+m2upaz9qX7Kn+uDA7MHCfMFJAyai+JfwC+KM3wcu/i5p/wCz/wCLtP8AhHqv7S+g+LtJ+G48Pzf2p/wj1jpt2NTP9gINkFvdDagHEZ+7wm0ngvqB+i3x6b45D4g/sqfs1/AP9rbxR4n0L4w+IPGLXfjrTbrT7qe5j0+xtTBBA1qotpre2nikU9cGVuegHyrb/tx/tU/Gjwn+yx4G+Kn7QV58M08QeIPiP4e8VeNbJrHT0uovCwjOn3l39oxapn7h5CncT97Br6I/aJ+MWlSfFH9kT9qv9nv9m/4k+GvAfws8ReM1vfCmm+DZLPVLOK+srVRMmnWp8qG3up5i2Syh8P34Pzd+zj+wL8TfGHiX9jHw/wDtSfCK+uPDeqeLfid4i8S6JqmmzXMGnW+t28c+mLq4ZSIWLwAqt1hiQFPIK0gPSPg3+0z+25+3V4C/ZC/Z/wDFXxY17wNP8T4fHd7rnijw5HBYarq1t4YlxpMynb+7EwXDhVAk64xWF8Af2rv20/8AgoF8P/2V/wBnLX/iz4g8B3PjXw/411fxJ4j8OeTaatqEnhm+ntNND3GDs/1ANyFwJMnPUEeffst6L8f/ANjT4ffsk/tMfFz4YeOdS0D4U3HxM8M61YaXpE17qumQapKw0rNu2w+QTuxccJgbcn5AW/s3/CX9oj9gvw9+yH+0V8Zvhd4x1HQvDfhr4hafrOl6JpE+panp1xr1/eXGnpfW0GPI+1Q3EOM7drAqwUjAVwMLwv8A8FRP24PGGrfsG/ErW/Gt6NO8a3dxa+OIYNkNnqVvb+LV0L7RcwqoGTHJH0AG45AHSv06/wCCPX7Xf7QP7SX7f/7Vvhb4p+J73WfCHh7Vz/widjcOJLezsU1XUrEG3wOAVt1U+u2vyS079gf9p6x/Yw+GXw21/wAC+IbHxR4Z+CPjnW4hbWFw01tq58T2+vaXYOSnGoMIh/oqj7SDxtyMD9a/+CLH7NvxM+Av7RPjW7+IXhjUtJfVPhh4CnnvLuxmt0l1e6iub3VYSzDa1wt1OftKjkP1AzQmAn7KVxNpn/BaP9vbU7OTyprbw54ckil/55kaSjD8iP0r89f+CcP7dX7VviHU/hKZPj3f/E+X4g+B/HWq+O9Eu3tbtvB0mhwynS7tprcfabXzm8lcXHDFuM7kC/oP+y/bzal/wWb/AG+dPt42lmm8MeHYo4U/5aE6QigD3zgD61+T/wDwTx+AXxYuW+AOk+DvgP4u8CeIfhZ4U+IcXxI8RX/h6XQ7fWotWtLtdKsROQr6jOpMOA4ypIK9PlcgPrL9ln44/FHVv+CXnxE/a8X9rPWvH/xNh+FmtanfeEBqWnzNoF4yNHbXoigX7XbTW20YLEZZsntXDx/tV/twfAD4f/EP4YeKvjJrvjI+Iv2Z7f4y6dq2oLANR0TXZryK1+z2Nxb8fZv3nfIHG3GDuj/ZHj0GP/gkN8Q/2QtF/Zm8deEfi9F8LfEVtqXiC68FyWEWs3G9nFqmoAfa7m4bfEVgdOfLIAwoFeZwfDr9pD9ozwT8R/ix4Y+Dfjnw7p/gr9la2+EsUPiLRZ7K/wBU1yO9iY/2dajfPcoYI5OQCVIAYDcAWmBs6R/wUV/bE+APwS+N2o/D34y3Xxg0nSvhF4a8XQ+IdQbT7yTwz4m8Qajb2UumtcWoZBOFnmkjt5C23yFGODu7b4v/ALXn7b3/AAT48D/H34Zab8Wtc+I11pXwx8LeNNI13xMkFxc6Tquvapb6fdLbsQf3RhuJHtkIKxlVXBwS3lnxc/4J7fHWHwt8QvgZ+zR8MtT0LTvHf7NHhLU9UsLLT57Oyv8Axho+rWFzPAQR5B1T7Ks/+jkm4JY45Yk6P7RHwg/aL/4KIeD/ANo74tfAv4U+MtGsh8LPBvhDT9M8R6XNpmoX+qaNrFrfX8VtDKT9oa1gt5kbaSxbaqgkjKA9U/aM/aB/bO/Yh+Hv7Uf7OGjfGfxR42vPCfg3wd4p8PeIdakhOs2F3reqW1ndww3HeBll4/udF55PmMX/AAVC/aw8c/Ff9gHwZo3jLVYI/E8WlxeO1R8f2rc3Wuy6O4vh0lJ/su4+mW9asftR6H8c/wBuPwn+1d+1R8KfhT450XS9b8GeAfDOj6drOhz2mq6jqGna3ZXN6ba1G77QbMQEMVz6DisDwd+wV+0P4N/azk8VXPhHXZNG0H9qHw9b6GE0y4EVv4YsbjX9Ya+QBRjTfO1EE3AxbA557VNwPQdCTb/weNXy/wDTs/8A6hC1/bJX8TGi/wDK45d/9e7f+oOK/tnr0gCiiigAooooAKKKKACiiigAooooAKKKKACiiigAooooA//U/r4r8q/+C33/ACie+OX/AGLcn/o6Kv1Ur8qv+C3/AB/wSe+OX/Ytv/6OioA+Df8AghxoPxH13/gh78JrP4UXzadrA1HWJFljl8tfJXXrzzhLweNueMelfqz8H/hh8bLXS/A0XxT1rVFntdEuP7e2anvkOrGW1NvESoHnKIvPBPTgetfBH/BuN/yhx+FH/XXxB/6fL2v3FryJrUD4MX4bftVza/pUt/rd59ij8c6hfXSxX4Xd4cug/wBmtzx/y7Ep8o54616t4R+HfxOfxdbX/jTWtQm020/tJjEl5je51Tz9P80QAZ22WFI6Y4NfTG7B9qkBB6UrHeh/msTvjJz65pVLo29Cd1MorlYWQ3Df3jU0mNlR0VEZBZH8937Cf/Kev9tf/sG+Dv8A02wV/QmjM23eS23+9X89P7Ch/wCN9f7a/wD2DfB3/pugr+hSu/F7kxWhJuf5eT8vvQ7O/c1HRXCmVZCbwPvsdu6vzOm+FX7YE3hG5i0vVtYj1y1n0KKJrvVoJYbmK1aT+0J4QF+XepTIYAkgYr9LCTmjca7At2Pkz4keBPjifEsVn8NNVu30ZPDGsWZmudQxMNXnMR0645BztxNFntkccV518GfhJ+0ppHxL028+LGu6ncaJD4a0+W5P9rmUSa+CRdwi32gfZsYwc8+lffG5qjm/1T0WA/jA0H/lccvf+uD/APqELX9tNfxKaH/yuNXP/XB//UIFf2117BwBRRRQAUUUUAFFFFABRRRQAUUUUAFFFFABRRRQAUUUUAf/1f6+K/Kj/guDx/wSd+OX/YuP/wCj4a/Vevym/wCC4fH/AASc+OX/AGLrf+j4aAPm3/g3G/5Q6/Cn/rtr/wD6e7yv3Dr8Pf8Ag3H/AOUO3wm/67eIP/T5e1+4VeTLc7lsFFFFSULk0oJzTaBwaALFFFcrqHjPwvYKzT3inyf9Z5SSS7PwhBrh6gfgl+wp/wAp7v21h/1DPB//AKbrev6F6/nl/YT/AOU937ao/wCod4P/APTfb1/Q1XoYr4iY7EJJzSZNB60mD2qSgopdp9KSgApJf9VS0kv+qoA/i/0Lj/g8Zuf+vd//AFCBX9tNfxK6J/yuNXH/AFwf/wBQgV/bVXsHnhRRRQAUUUUAFFFFABRRRQAUUUUAFFFFABRRRQAUUUUAf//W/r4r8pf+C4v/ACib+OX/AGLrf+lENfq1X5Rf8FyP+UTPxx/7F4/+lENAHx3/AMG+tlBe/wDBIn4HWUo2xS33iYSASSR7x/aGpj+Hg/y4r90JLHVNFhE2kPLdRxLzbTP5khwP+WcpP+s+pr+fH/g3a+Mnwr1X/gmh8JfhPouv2WoeJvDkniC61fSLKbz76wgutU1E281xbxEvArgjYWHIII61/QyPEWn4/wBXef8AgLdf/E15Et2d8djWs7uC9tY72zfzI5U3j6VYr5o8d/tSfs0/AbVTo/xs8c6F4GGou1xYR+IL2LS/OAI84w/a2TdiY849a4n/AIePf8E9/wDou/w8/wDCl0z/AOPUgufZtFfGP/Dx/wD4J5f9F3+Hn/hS6Z/8dqS3/wCCgH7FXiqWPw98Pfi54O1/XNQcW2nadpet2N3e3V5P/qIIIFkJaZjwFx9eKAPpz7LP4nuZPtvGlxt5aRdftL/89Jef9V28r8+wqTxtiy8G3aQDy0jjGxI/+uiVa0+5fTNMt7G3069xDHHGP3Q6D/tp2/SsnxfqM8nhfUIbfTr+aTyjhVgyT9B3rgaA/Bn9hH/lPx+2p/2DPCn/AKQW1f0OZI6V/NV/wTO+IHgP4p/8Fw/2xvH3wt1my8RaBquleGJ7TUdOnW4tZgtrAp2TplSAwZTg4yCO1f0a/wBuy3yhtGtXu4/+erN5af8AkSvSkKJ0aDPWpawRqGtxL5t1Y7h6Qyb3/kKnsdSstRSR7OQHy38uQfxpJjpIP+WdTYdzXrO1DULTT7Yy3LN/sIn33/65itGuP0RWvp5NdugN0pkS0x/Bb8f+RJcNJ9MDtTSBiXevavaPFK9gqW8s0Ubl5f3g87j/AFeP0zXUSf6t/wDgdYXiX/kHwf8AX3a/c/66it246P8A8DpJCbVj+MDRR/x2M3H/AF7v/wCoRX9tFfxNaB/yuKXn/Xq//qErX9steucIUUUUAFFFFABRRRQAUUUUAFFFFABRRSE4FAHzv+zh8Sta+J/hzX9S125t7uTSvEer6THJbwNbr5VlctEoKuWywAwSODX0TXzZ+zHj/hGfEn+r/wCRo1r/AFXT/j7f9a+k6ACiiigD/9f+vivyl/4Li/8AKJv45f8AYut/6UQ1+rVflL/wXF/5RN/HL/sXW/8ASiGgD8+P+DbD9m74SeEP+CcXgr9pLwPpkei+NvF0WsWet6nAPMl1CGz1i7jtvMWXKL9nRQo2AZA5zX6Ozft0aja/Fu9+G8fh7xLc6TbeKrfwdbeIlXT/ALBcajJcW1vdhv3YaAWZnG3cP9I2zBB8gr8oP+CC/wC35+w98EP+CV/w5+G3xk+LnhLwr4g0ufWWu9O1XV7azvIRLql1LHmCRlfDRsrLxyCK9C8afFz9jbV/HGt694J/bG+GmlaLJ4xt/HOkaRPcWVzCNUS5tri6OpF7/dcIDbH7ILU2ZQyn7+Aa4JX6Aevf8F/f2Yvg18TP+Cd/xF+OfxK0O28ReL/Auhu2galdKY5dP+03tsJzF5OAThRjcCOMHgmvJv2bf+CW3/BKiy/4Ju+Av2m/i18FtI1OaH4aab4n1m5BuDPcSf2Qt5dED7QP3zHcR6HpjtZ/4K4f8FCv2Jvif/wS3+LHw5+HXxo8EeJvFOp+HreCCx0rWbQz3Uv2iDzvIgSRn5GT5IycDB9a7r9nL9uH/gnf4m/4Jc+BP2cvHnx38E+HtR1D4X6b4b1GKfWLJbnT530ZLSRTbu4Ia3bI2kDlcUmBzPwB/wCCb/8AwSn+Nviyf4ZeJ/2WYPBes6VpMGp3EGoXEsgw8zW0X2e4tbphcwsEMnng4IIyM9O58Cf8EI/2IvhV+1dpf7XHwo0KLSGsHjsNL8PL9oNjpt9Z3Csmq28v+vN6vkHaJybfMnT7prP+CX7T/wCyL8O/jJpvxm8W/tffC/X7y80k6HrNq09hbWwtYJ2uLODSAl+DYQW5cj/STeF/7wNfWvwh/wCCnP7Kf7Q/7SM/7If7O2sp468R6LZS+KZdR0e5t7nRjZi4VGUXyXBzODcLmEKQO5AFC2A+87yPx7YeQTrRlWS4ij2rGm/EjZ/549oq7N9K1J4/KbWL0b06jyP/AIzUdrp97LcJqWsurun+rhT/AFaf/HJK365wPy1+C/8AwSd/YJ/Zf+M198XPgf4DXwvd6ro8Wj+fZ3d1i0xP5xkWNp2w1wQmZu3kgcZOf0d0HUdSgkHh/wAUBF1GJPldMiO6QdZYh294snyvUjBPVf8AoFcZqNvbWVj5OtSGOyjG+G4X5ZLFh383psA6ZHbB8wHgSA6m+u4rC2824+72RPvt/wBM4xX41f8ABQf/AIKOa3+zp4v0v9mH9lzS4/iB+0r8QE+y6D4cgPnW2j2zfvft2q7WUIiR5nw2MgE5WBS1fJ3xv/4Lw/DLxH4fh+Ff7Ai3Hxb+PPijVb7w3oGjx2E1laac9rO0I1K8juNuI5VAnHzcqPnNuA+Pvj/gmV/wTX039irw9q3xX+L+sP47+OPj8rd+MPFd0xllklOG+xWxblbZD7AzkAkBQiJUUB8ft8PP+DmBVEg+IXwYdlT5kS0vN7/X/QwPyIFfu1p9no1pp8dvb/22kcacZE+cflXeffr8v/26NU8A6f8AHD4Xr8WLvU7fRjaam+mjSpjFdy64L7S/sC2KLgzXe3zNq9Ps/n5+XNavRHbFH2D8a9N8e6t8I/ENh8E5rq38amymk0GXVFn+xR6mEP2T7Tgf6jz9u8DtnFfi5L8Ov+DnQAgfEP4Le3+j3f8AWwr9S/8AgnZ4/wDDfjn9jrwJBpOq22pajoulWum6tHDKHa1v441ElvcY+7Op+8D3/CvtuUfu+WrnWLOKx/Br+xlp37Tmnf8AB0vYWH7Zeo6NqnxHitLv+1LnQEMdhJ/xSbfZfIDJG3/Hr5WcqDkGv766/id0MeX/AMHit2PW0f8A9QkV/bFXsgFFFFABRRRQAUUUUAFFFFABRRRQAUh6UtIelAHx/wDstXMWi6NrelQ2u37b4u8QNu8oQf8AL5Ic/wDTbP8AfHXHtX1+RyK+BvgG51DxBFc3d19vP/CZ+JpIWTdB5A3uPs5gn+Y4B7fUcGvv1gAeK78wSueRgcXeqxtFFFcB65//0P6+K/KX/guL/wAom/jl/wBi63/pRDX6tV+U3/BcT/lE38cv+xdb/wBHw0Afgr/wRQ/Yt/Yu8X/8E/8A4bfE39rj4UeEfE1t4uu9StbLxPd2v723u/7VntYLDVSRgmRkAtbjOPmW2wrbd/71x/8ABGj/AIJYoMn4E+EkP91rNj/7Ur5e/wCDeDStH8Q/8EXvhloWu2kF5ZXZ8QxTW1xEJYpVOt3uQ0J4lGOv5V9j+Ivil47/AGUvHnhb4DNZr4m8MeJDcpomsalqn2SXSzZmDFhqEzhmuA/neRZXAySdtvc/MfMfyJSaYGHH/wAEbv8AglsJU/4sR4P/APAH/wCzxXyB4f8A+CUn/BN1v2Gj8Qk+C/hVtZ/4Q251AXMtnJ5vn/ZJGEpJmL9eR8+RxgjAx+vcPir9oZ1Qt4K0mKQvyja6x4/Cyr5f+GupeNtQ/wCCbtzL460e00aSPwLdCGKzvPtyNCNPk24fAzxj1puR2o4rRv8Agjn/AMEt/wCxrPd8DPCLs8ET73sSd37v3kJ/M/rX0P8AAv8AYI/Yv/Zh8bTfET9nz4aeH/B+uT2Z0+S+0u1WCY27FWaLI7ExKT6kc18QL8cf+CjFp+29ovw48LeGZbr4QnxELDUruTR/LS20z7JmB7a4DANDvwCxU4PFfszg7Pu0lLQpoTJoyaMH0p3bGKQrIbk183/td+Pvi58Lf2aPGnjb4AaR/wAJD47tNLuG8O6b5Rm+06ltP2dfJBXcN2CRkcDqK+j6o3f/ACENP/6+j/6JNOINH8Gv7Fvgz/grv+yH478YfHe18LfDe9+Jvju8lvdY1fxrcZ8QW0tyQ89kPLljFuHYBymNvTsAB+jw/bz/AOC9gP8AyB/gqP8Atre//JVfqf46TPxO8U/9hq4/9GCvLvG0P2uw/wCEV/5bav8AuK/U8vyLCtan4dmPiHicPiXh7Hxb/wANff8ABw7jP/CJfBz/AL6vv/kqq11+17/wcLkIZvB/wdG0eanN709v9K/wr9Crhfl4i/8AIVULi1yvFS8iwxwf8RPx/Y+a/hn8Uf8Ag5K+Ivhr/hLNB8OfBOG3eeaHyZ21JJg8DbTnZMy9Rxzn6V3U2p/8HNMaY/sH4Gy8beJNU/rIK/TH9ky11DxB4Cj0uW/uLSzspLm48i2lwzSXN7csfNlHJ6dBivoXRPA1zPHdwyTatpLW80kUD/2nNdGaLjEv78vj2BHGK+Hx2CSxFj9ky7G/WcMsQfxF/seN+0uf+DpnT3/bUttDtfiRLY3f2+Pw6XbTR/xSjfZvs/mEv/x6hdwbnOa/vcr+IX4cavqOs/8AB25p2p6g4ae90VTcMOA5/wCEK7fkPyr+3qpO5BRRRQAUUUUAFFFFABRRRQAUUUUAFIelLSHpQB+cP7MWr2WvawZfBv2ue10/x74vtr430vmmJ1lk4tT/AM+ucbR2r9IFOK+BPCnje80P4h+DfCviK7s2n8QeI/E32EW379JLez8wjdN5AxOuPmGR0IycV97q3QV34/c8fL8JyofRRRXAewf/0f6+K/Kb/guJ/wAom/jl/wBi63/o+Gv1Zr8pf+C4nH/BJv45f9i63/pRDQB84f8ABuOdn/BHb4Snds/feIO//Ucva/THxxpuk63+0F4T8Ma5awXen6l4X8S2s1tcYMUsJudGBhMB4YEcHjgcd6/Gz/g3w+CVv4w/4JM/CrxLN4i8T2DNLr+INO1We1tABrV2v+pQhf4c9OpPrX6YeI/2fNNX9pLwNbHxV4y2Hw94lkI/ty+ySZdGUbsN/D/DyMEmvJnudq2PRvCviPWf2dtZsvAXxDvJr3wXeTfYtB127JMtkcAQabqk5JLZ5W0vnxvwtvcE3RV5+Q06SaL/AIJ23Q8nBj8CX/7r6WcnFew6t+zP4X1rSrvQ9b8QeLLmzvYZbeaKTWr10eJxg/x5HHpX8K37AHwv/bn/AGuv2Yv+EkT9q/xz4V0WDUbvwlDoNu95fx+VaxRsYQVvUAH2efgbeAABwBXVgsE67PFx2cYfDL6xiD+/my1pbHSrDSrJTdXv2WL9xGcbP3XHm/8APKLimapo8t9YyX17OHvY8SQhW/dQyw/vR/n0r8y/2evjSnwW+CXhf4WfETwvqXjbW9F0u2sdR8QzxbpdSntFCmeYtDu5IyCxJ/nXtJ/bH8Gedt/4Vzef9+f/ALTQ8oZxLijC9z7v06+hvrOHUYFbZcIJB9K0Bgj/AG6/kE+N/wCzN+3H46+Kfiz4h/Df9qzxp8PNIv5NQ1XT/Clml4LbTLAH/RbGDZfLHkDgbUA9q/TP/g37+PHxV+Nf/BNnQviZ+0P4tvfE3iDUNa1pRf6vcGed7e3nSELubkqp6A9M+lGLwdjswOc4fE/7ufuGeteSfGv4seAfgT4Bu/jP8Vb9dK8N+Gib3Ur10Lx28OPJ807QTgZ7An2r0D/hJvDv/QRtv+/kf+Nfm/8A8FgtX0vUP+CXfx4g0y8t5X/4Q+/c+S46fJ6flXLFHuPY+ck+L+l/GDUNQ+JvwrWHUvD/AIjum1XSdVkk+z291ZXEoEE4GBdDkeg+lYPjDwj4k1XwPrdjo+o7fEOr2P2eC8/1Hk/9e1Vv2AfgN8XJv2Bvg14gS1slsX8D6PJG8+oLFiG6tFf+FCB8rL3r6itPgP8AFq9kjh0+y0p5ni81E/tBog3/AFxxanAr9gy/McKkj+Zs0yDMa+Kf7g+RNc+Hni8+G9cOja5Jb63qE1v9im+03H2eH/j37f8Af6sl/h34ivPiNb+Ihrsv9l217qM+qadDf3H/AG62/wCFfW+s/DXxdpPj/Tfhj41hj0uXX3jjSW1uDdfuJ5fJI+YDHHm9sV9WftPfBzwL4e+E8fiXwjp1vpU3h+WFVFvEqiS0uJFgnt3AHKMsgJ9xVY3P8KTgOEMT9Xrt9C7+xfMD4Surd/vkvIf+BXdzX2jJwpb2r4v/AGP41tPC1rGOs41Uf+A+pSD/ANq19g6vOtnpdzdv0iid/wAAtfB5i74g/ccgVsJFH8SPwnhuYP8Ag7L0dLr/AFn9gJ/6hdf3A1/EZ4Hg+z/8HdGlQemhxD8vAwr+3OvPPcCiiigAooooAKKKKACiiigAooooAKKKKAPzC8DaZp1n8YfBS2PhG8Vz4y8ZzSXepx+VPZM3mZuLUf8APre8Y9Qwr9Pa/JnwFt/4XR8O/wC18QT/APCc+PPIijg+1AjM3W4/5duO38X3a/WagAooooA//9L+vivyl/4Li/8AKJv45f8AYut/6UQ1+rVflL/wXF/5RN/HL/sXW/8ASiGgD4N/4N7/AID+A/GH/BJb4V+Ldb/tVbp5df5tNW1C2i41q7T/AFFtKidEH8Pv3r9LfEP7L/wot/2mfA1mia8U/wCEe8TSA/29q5ALXWi5B/0vv2HtX5l/8G/P7O/wp8ef8ElPhb4o8U6VPPeXEuvgyR3uoQqQNZu0H7q3nVOiAcAdPrX6d+Iv2XPgmP2kvBFmNAmKL4e8SyK/2/Ufk3XWjZH/AB8Y+bA6+nGOa8ia1O3ofQD/ALNnwzACD+3Mbd3/ACHtW/8Akqv5av8Ag2phkg+CnhqO3/1Q8f8AiL9NLiAr+pGf9l74K4Zf7FlIJ8z/AI/b/r/3/r+Xv/g2l/cfA7Q7f/qe9d/TT4xXs5KrM+X4m2oLzR/YPrGv6H4fthd69ew2UR4DzyLGufqxAqhbeMfCd54im8IWWqWk2rWsQllsknjNzHGeAzRA7lU9ASAK+Uf22f2NdB/bU8EeHPBXiDW7jQofD+uW2tCS3himMpt0dfJIkBAVt3JHpVn4b/slWPw5/aCl+PFtq63E11oX9mXkP2OOOW7vZJxLNfTXCncSwAUQgbV6+lSe1ZHi/wC36pbVNH/7AWt/+i46/G3/AINc/gmngb9jGX40+GNavJ7nx/qV7aXlhqB86ytTos0iQSWECbTF5wn/ANKLMdxVcY2iv2W/b4A/tPR8/wDQD1r/ANFpX5uf8GzX/KMnwT/2HPEv/pRHXbjP4CPmsjVsfifl+R/Qn/xVP/P3Y/8AgI//AMkV+MX/AAXl+EKfF/8A4Ju/Ei28U61PpqeENI/4SaE6aDbCe5sy0UFvcklhLb3HmyDyezAHOQK/bO7urPTraTUb1/Lij718rftSfs4wftafsx+P/gFrOoN4ef4gaS+lyXaxiaWziYYi/ckgHHXGR9+vm/rfQ+06HD/8E6rS5H/BNn9ny4htlka18BeF5mhf5C+NKg59n58z619A/Dn4kS/FlZUi094msNTnIkkRo1W2hmK28q5++1xDgjHABPSvxJ8G/wDBGP8Abc+HHgvS/h74C/bd8baXoeiWsFlY2kWlw+VbW1sAqwj/AEvooAA9AMHIrpo/+CSH/BQcf6z9urx2f+uelwxf+3ZrqWNOE/Sz40/D7xF8Rf2mdGtfDFxDa3Gh6ZY6vulYjPkahJ8uF7EAiu6+MHwq+OPxU8BXfgmbVbG0F1LbyeZEzIQLedZscwN12gV+Ns3/AARd/bgu/EP/AAldz+3J8QP7R+zfZPPhs/JHkZz5e1b3b15zjNaR/wCCOP7enleT/wAN3fEb/wABm/8Ak2u362cn1I/T39lqLxBY/DrRfFtppEt4YbjxBazwwNGjx/aNSM37o3C2vmrmLGcCvovxN4m8Va74dvdG0Lw1qf2u5hkt90z21ukRliOHMgnyQPWHcQfSvwZ8Nf8ABFz9uzwXpq6L4V/bo8e2dmvziIacXx9C1/8ApXQH/gkb/wAFDgCP+G7/AB5z/wBQxP8A5Oo+tnVhMJZH5reHNHXTf+DwIWY+7a6RGq/8A8DxxV/a5X8DX7G3wl+I/wACP+Dpq0+E3xY8c6j8UNc0i0u/O8S6mnlXNwtz4Ta4i85d748lJVtx838I4HQf3y0DCiiigAooooAKKKKACiiigAooooAKKKa33aAPzu8DaRrcvxJ8K3NnerpNpB4r8UzXFnDEtgL3O8KTBeA3FxgndutsL3Py1+iKfdr8+vhjd+F7f4maXBoU11bxf8JR4ohaLU4Tczy3OYy32Sf/AJd7UckDvwK/QROlAD6KKKAP/9P+vivyp/4Lgf8AKJ345f8AYuP/AOj4q/Vavyq/4Lf/APKJ745f9i2//o6KgD4B/wCDfj9nb4G+P/8Agkr8L/F3jDw3bX+oyz62JJ5TJk7Nau1XjzABwq9AOnSv0x1z9lH9nu3/AGlfBFjbeFbZYz4d8TSFfPuuN11ou7A87bzxnI4wMY5r8uP+CAHwd/Zd8Uf8Em/hj4h+JXhrwzqerS3OueZPqVvZSz/Lqt2qjNwpPCBRj0xX138RrL9jfwp+3/8ACb9n0fCnRrtvE3hrxNdR6lBZaX/Z0AtTYMxmXfuOBAF+7/y1XGRv2+RNanetj9DU/Zd+ASxME8K2oGzH35Onl7f+enpxX8QX/BF/41ft/wDwH+DNjqv7Ov7NOpfFLwpY+KdUvo9VtNTFlHLLJCtpLAA6MD5AXg4wTx2r+3a5+An7J+k2K3dz4R8LwQqmI82tsAB7fLX4i/8ABsbqmjaH/wAEuLjU9VmhsrOLxrrJ8+RwI8bbfByeg7fhXXg8XY8/F4RVj0X/AIen/wDBWf8A6ML1/wD8Ki1/+QaYf+CqX/BWYf8ANhXiD/wqLb/5Br9zYfiT8P7jT/7Vt9bsjajzv3olXy/9H4m5zj5e/pW3o3iLw/4j83+w7yO6+yyeVJ5ZzsPoaf1pDP5eP2jP2yv+CuvxguLfVrX9ibV9NhsNOvrNxLr1vcHN0qv5ihIk+6EHGDzxnPFe+f8ABtPp1zqP/BKHwZe2Vy1rLaa74hXOzfnzLlh+nFf0AeKY0k0G4tZHeMTDyXaP/WBJv3XFfN37MP7JXwp/Yx+Hb/s//syQf8I/4Q0+5e7hs53ub+SOa5bzpsTXVwzYPYdqHi9AWFPpm20O3iuUvb1mu5x/q3mx+7/65elbdcx/Z3i3y/8AkJ2//gGf/j1T+HLy7vLW4N46SSRXdxFvRPLH7k4rxGjvR0FFFFbILIKKcF4602gYVHL9ykLHNRSsdldX1Zk8yP4v9F/5XGrj/rg//qEV/bVX8Sui/wDK41cf9cH/APUHr+2qvWOEKKKKACiiigAooooAKKKKACiiigAooooA/OLwZ4D0iT4q+FvENnq2ta2mmeMfFFySDClrZzXsEgNrdqJssqbv9DwpIBGQOK/R2vyw+EN54bv/AIj+FXsYTZFfiD4xBht5Mg3Ign3G4HrjnHbiv1PoAKKKKAP/1P6+K/Kf/guF/wAonPjl/wBi43/o+Gv1Yr8pP+C43/KJr44/9i6f/SiGgD89/wDggF8KPC3jL/gkr8L9VuvAHh3VL0Sa8F1LV4LeVnxrN0MZSB5+MbeT0UdsY/YSX9jf4Na/qVpfeLNC0d4YZbiaax07SraztJmuodjGdcNMTj/a+or89f8Ag3I/5Q5fCb/rt4g/9Pl7X7hDqK8ia1O1fCcV4G+F3wy+GGj/ANi/Djw7pugWuXl8jT7aG3TzD1O1ABmv5SP+CQHxn039nT/gh/rfxQk8LweMGi+I94tvpM73EUc1y1xaLBg2trfTjayKR+6Y5HJxX9eS/cb/AHa/kx/4Iu+K9M8E/wDBGSPxJaeEbLxZqcHxTcaTp2oXq6bCdWbULMWM89wVYW5t32Nwp+4ABzUPbQ4j6C8e/wDBVXwH4ds/FfgPxp8EbW403w5qVzpc+nzam3nRRancXH9owX1qbNsTMltPcsIDLbMuMSDGa9S1X/gtPpOh/D5/E2jfD+K0judE1/xBbtdanKAG0/xNPpIEyW9m9x/pVtBNqI8lGxtNsATh6wfjDq/7OfiHxN4Y8Qap8AbLxRqvivWvGmmz20mtN5yz6frL2ckcIk/0czX+pX8hIJS3X/nof9GFeC6J4g+C8/hjWPH/AIE/Z78Ex6p8L9M0HVYJv7V1dQbjVNQuLdrWHUf7PVrb7H58/wDxLbhBci7OPsimBCddQP1+/ZY/bK1/9qbUfFuiXvg8+GY/DEegXJnkvUvY5/7dRbyyFuUUDK6ebeY+k8u0Z2lj9+A51/UI/wDag/8AQK8h8L/BH4dfCPwpqsPw10u30Sa4trbzfL8x4t2lQLHajEp/1UaRBRjHHvXxB/wSd/a/+I//AAUN/Y+079qX4owQeH9S1vUb6yk0/RmZLWNbCQwA/vy8wLYyRv4ra1kdqsfp1qepS2z/ANmWGJL6Qfu0/uf9NJPatLT7Madp0FiP+WUYj/3sVFY6Vp+lxvHZwCPzOZDjlzjGZP79X68nqWFFFFdoBRRRT5SOdBUU33KlqKb7lNMd9D+LnRf+Vxu4/wCuD/8AqD1/bXX8TGhr/wAdjFyf+nd//UIAr+2evWOEKKKKACiiigAooooAKKKKACiiigApDnHFLRQB+Xvw7n0+2+KPga08OxaJDbN408YC6C+b5v2gQzZ+z54+0Hnzc8bc4r9Qq/Lb4f8AhTTdY+LXgnxTpGrRX1v4c8c+MYi17L9lnVr2CbNtawfZ1FyFPJORhRnLdv1JoAKKKKAP/9X+vivyj/4Lj/8AKJr44/8AYvH/ANKIa/Vyvyi/4Lkcf8Emvjj/ANi8f/SiGgD5y/4Nxv8AlDr8Jv8Art4g/wDT5e1+4Y6ivw6/4Nxf+UO/wm/67eIP/T5e1+4o615MtztXwk//AMRX8G//AASd/by/Zs8Af8E8Nf8A2OP2gPgx8QviXpV/4m1G+urjw/o0t3p8wZ7dowZ4Jo7iG4UxA4HK4HzDPH95Pp/uPX8+/wDwbXXU9j/wSy0ewteZZvFmvwJIf+vgnfj2xU4U4j5Pl/b6/wCCccOoQ67q37Inximb7bcapaQXXhq4ns7ae6tc3L2ts981rbxEfMRbIFz+/wBu75qt+HP+Chn/AATy8P6Xf6don7LXxujsvEFpb6TqEJ0TUJIb6G0nNxb3NwG1Aie4FwTi7bN2TwWxxX9J3gTw98QPBd7dzeIr+bUrW41AwxrPKZHW2AC28kZL8Et/rUxz1HAwffq9gD+d3U/+C/vwlk0y5/4sF8bFMsUuGfwqFHHmd/PI7fh+Bqt/wbHAD/gk14a+9/yH9d+90/4+h0r+hq/XOm3A/wCmb/8AoNfz3/8ABsyf+NUfhr/sYdd/9La5MZsB/QDRRRXjJancmrBRRRXakDkFFZeq6zo2g2q3ut3cNnb7tnmTuIx9MnArAHxF8BmO0mGtWeNR/wCPX9+v73/rlzz+Faoyt2OzqKb7lc8PGPhCWPz01W08vzZLbf50ePOh6xfUdx2rnv8AhaXwynuodKt/EGnSXN2B5MSXCeY/ndMAHPPape5SWh/IRoSj/iMUuj/06P8A+oWBX9r1fxP6Cf8AjsVux/06P/6hQr+2CvUOQKKKKACiiigAooooAKKKKACiiigAooooA/NPwhLqei/F3wPpR1q3lj1Hxj4tmINlEZZAsEpFuGH/AB7lOSSOWCgHrX6WV+SPwT0SwPxU8Kalrn2JLiP4hePGsePtE0odpwSrf8u5AU7l9APWv1uoAKKKKAP/1v6+K/KH/guT/wAomfjj/wBi9/7cQ1+r1flL/wAFxf8AlE38cv8AsXW/9KIaAP51f+CQH/BYqw/ZR/4J2eBfgZP8BPif40/sGTVl/tnw9pK3Ol3Bu9RubvbDPleUD7HGOGU1+psX/Bfrf/zaj8cvw8OA/wDs9aX/AAQGm1G+/wCCR/wA8OW9/PYW99feJY5/sp8uSQR6nqsqjzByBlR09Mdq/bK18F31z4kvNIuRqkGmxwRSQagNYuGeWVy4ki8jd8giAXDEkHdgDij6pcD8Mdc/4OIPBnhuzW78S/sz/Gmwgl/dxyTaFEoPtlrkCvmz/ggx8U/jV8Lv+Cfh+HeveG49OjtvFeptDHrEV7ZXYineC4ExESHIBdhxjpjpX7n/ALRep6sPhjptvdXcsj23itrVZCwEpihhuPTHOBXyjb3d1P8A6Tc/vv8ArrJXv5HkeHZ+W8b8V4jDP6thtz6I0z9pH4owul3fWmm3jL/qfPkljK/X5a0bn9rH4vQ/6jTdFb8bj/4uvgnQfjn/AG8v/IEvrf8A4lf9qzfvLf8A4964eP8Aai8N388Fpouk31yLj+zf33mW/wDzGbb7Va19b/q7h+x8F/rhnCW5+huuftifGG10W/l/s7Qt8NrNIMm5xlId4/j6Z/SvhP8A4NmJN3/BJ7wu3/Uwa5/6W16PrDXr+GLz7VF5Exsp/Oi/7d68z/4Nkoc/8EnfDbf9TBrv/pSK+R4pwOHwzVj9M8Pc6xOKg3ivL9T+gyvzu/a9/wCCnn7J/wCw7490r4c/Hu81e31PVtLm1hE03SbnUUSxt5fJlnm+yoxiUEcnGAOvbP6I1/MT/wAFLIf2ntT/AOCu3gnwj+yX4X0jxN4o1n4L69prxa1d/wBn2MNteXbW807EZL/Z22H7OOSD26j4jCbn6Gfo98Zv+C0H7AnwG1vQNE8Z+JdQuk8SeGrTxjZ3mlaPf6ja/wBhXZYJfTG1iYxJ+6fORlRjIr03x1/wVJ/Yx+H2pa3pms+IZrkaJ4Eh+I81xZ2k1xby+HLmeK3guYZFXbK7NLFiIc4OcYr+Vj9on4J/tP8A7Gfx0uP2a/2ek8P+Jtc8L/shXOmeKbnUJZ44Bpy6lczanPp2wKZrkNj7Is4C4PIGNtc7+0CPBw8GeJo/AUl5LoS/sV+E47GS9Rftf2b+3bLZ5wT5Q237235fTgV3fVAP6cvir/wUv/YN8W+AvgxN4h1+9k0348alCPBoj0mSZry4tr2G38uaKaNvJxcTouXA9jV/wF8Wv2Q/A37fHh39i628T6ne/Fjw34NmsxYT2pFlNYT+XfGYzeWI47jCA/uWHBwRwMfyDaPot4/xv/Zy+CEjlv8AhmX4raJ4N2Ef6y48R+LbrUbZvp9jswPr9K/Qq3+OH7O3/D6SH9oqbXrb/hYcn7Qs/gA6OJv9O/sT/hGxoEFybfP/AB7f2lkbsdTWKaA/YL4X/wDBRD/gnXqPx4uf2cdI8WazP4pl+IWtCJ9Q0a7js28RrHcW89jBfmEWu4AsLYb+m0ZORXrPwI/a+/ZG1VfhF498E67davB8VYv+EK8I6e+jJDfR3Wheb/aU8qhBcwIPs6C63fu4fJh4Xqf5o/h1qHxWX42W2g/EPT9Ns/gpB+2tqMrajp7tLrsfihXb7HA0R/0UacT5IeYfN1wBgZ/UP9gT9ma48Kf8FxP2h9G1LVn1Dwx8H3ude8J6ZKqiKwv/AIkx297fvbYHyhVga2x0wegOadgPkPQB/wAdiV3/ANeTf+oWtf2uV/FD4dP/AB2IXY/6cm/9Qta/ter0ACiiigAooooAKKKKACiiigAooooAKKKKAPzf+Gvi/WI/iR4c0mW+unOpeM/F0OILfT4lkgs2kAW42c4UqMH/AI+m/i43V+kFflf4DS2vfjL4HupNNvrBoPHXjERR25ht7f8A495gWulU5uM/wkc569K/VCgAooooA//X/r4r8oP+C5X/ACiZ+OP/AGL3/tzBX6v1+UH/AAXL/wCUTHxx/wCxf/8AbmCgD5K/4N82Ef8AwSq/ZyT/AJ6Xfir9NT1X/Cv6EtoxX89n/Bv3HB/w6Y/ZuupeDDq3iZF/7aX+t1/QoelAI/PT9pI7fh3Zr08zxjMP/INz/hXzT4L8O69401iLw34QsjeXgiEmxiBBHCek0/uewr6H/aNcD4M6LdD/AJb+Lrp//S7/AArR/Yv1zw5ZXHjO3vbmOC9huLTeJWEZEP2ddnB7da+twGO+r4U/KeJsmWPztYZ7HysmkroWoXGiahp6295p8gtbmBkBlRSMggjsRXPeIpvDug+SLy1i86f/AFEMUX7+X/r2r6L/AGnNX0G5+Nsx0uaK4ZNCtJblYQJW2+fP2HrDuxXzBprtP/xVF1D++vuP+uVvX1eXv6zZn5bxBg/q2YPCoiuofFGuRw6ZdfZtKhvpvsU3/LaeK3u//bivv/8AYk/Y3+GP7BPwfP7NHwXn1C48N6XePf2z6nIJpvNv2JmHmqqDAPQBRjNfE1ju/tbTf+vuD/0fX7Kv/wAjPfD/AKZ2/wDM18NxytUfq3hZ/u7KfiLXrDwzoF/4l1dtlppttLdTH0igj82U1/Pr8Ev27/8Agnh+1/8At7+Hv2uvCd/4z0bxNpXw/wBbsNCttZ0ZrPTNa0q0k+1382nTFSZ57TbKGUMP4uPlr94/i1/ySrxR/wBgi/8A/SWSv4Tv2DE+NmhaL+yDqfxrudIu/B+peCPinYfDQaMLiO8stRnguvtrayOPOUgFU+y8jIzyMt8NhD9SP1zg/an/AGCP20fix8Tv22pNN+KWm6Jd/A/WvDGp391oH2PRZPDdvc/abyWwud5MuoAzYQByuAcAYr5q8MWH/BKf43fAPx3qM3iv4jWCeBvgTpnhTUNN1TSIbHVJ/CGk6lBdW2r2EFzF9mnLTwRjeCVAkH3SeLX7K9r+2bD/AMG8nj2b4w33hK5+FT/CbWv+EWg0iG9TXIpMy/8AIRZsWxUfvP8AVjOcEnGa+ff2hyZvEWsE/wDRhFkf/J+2r2gPtvwlqf8AwSe+OviT4lftKy+J/GHgnUfCnizwp8bdasdb0o6ZOYPD1ubbTTbwTwt9p0+5kmZhtyxadQCoKVR8DT/8Em/iH8BvGXi7xRceLfAGtfC3xtB8bNW1jxT4fg0vxLM91qBurWaD9yfPsbuWVba2UDcflGM7TX5RfHqX4qXHwS+N6/tQRaRD42j/AGd/h+PCg8NvJ/Zf/CJf27p3m/aftXzf2h5nkYxxjITtX1F/wV/lnHiT9o0S9/gN8Pf/AFJbWgD6p8PeKv8Agmjrv7OPxI+I/inUPiZ4Wj+G3xd0/wCO+uaTr+jwWWtQ32rTxLa+TYlNsumXJ+7zkD5iwGK+3vBn7Un7BXwZ/bP8P/tRaZrHiS88Sftv6doP9jWhtYTZW0WlQwWlqZh5iz25fzFz95chumK/Mn/grVa2t/8AFf8Aa1tbviCT4UfDWN/+uR8S226vzr+G2l395+1d+zf4P1F5jL+zj8TfD3wslyMB7i68Q6/fbh9LW1txXl8yTsB+hWgxAf8AB4lej/pxY/8AllrX9q9fxQ+Hz/x2LX4/6dHH/llLX9r1eoAUUUUAFFFFABRRRQAUUUUAFFFFABRRRQB+VfwQttAvfiL4Yu/Fj3B1K38d+Of7J+2J9nn2mSYP5cPe3C5wf9096/VSvzI+AwQeK9KbxhFJq2o/8LA8Y/2bPKpiNlb758gCf5iNuANvrxxX6b0AFFFFAH//0P6+K/J//guX/wAomPjj/wBi/wD+3MFfrBXknx0+CHwy/aR+Emu/A74yab/a/hjxLamz1C0EssHmxEg4EkDJIpBAIKsDxQB/Kj/wRx/4KdfsCfAr/gld8Kfgn8V/ivonhjxt4XvtSvJtP1AXX7vfrV3cqshhgYfvLacFcE8kehA/WyL/AILm/wDBPi5/c23xb8DLN6yarerH+Z00Vy//ABDhf8Eb/wDokR/8H2u//J9Tr/wblf8ABHJenwhH/g81s/8At9QB4t+0B/wVm/4Jm3vwc8NeGNO+Nnh3Urux1NJ7r7L57bv3E4lbaq5AMsoIPSvor9jj9qT/AIJ3/HH4fLP8MfFg8U67bWdtP4hfSRqcrxzMOs4hXjkED6Vkf8Q5v/BHZf8AmkKf+DrWv/k2vq/9mj/gll+xN+x2dZP7Mvhi88Hf2/8AZ/7Q+wa1qy+d9lz5Od1233dx6Yzk1X1pnCsBh/rP1l7nj37RuofAGx8Cya/4Tt9ZgubeM/arp7LWS0WmeUftH+tUcbcV+Ox/4Kd/sJxQw2i/HDRjEIccWEn/AMTX9O3iH9nXwB4o8P33hXX7nW7mw1O1ms7qNta1P54biLyXGRcgjK9xgg8jmvy7/wCIcz/gjuf+aRj/AMHWtf8AybXu4DPXhtjwc84HwuYYn6yz8xX/AOCoP7D0cTarafGrRp5bYCeOL7K8HmC2PnrB93ueB6ngV9y/sSf8F+v2If2m/h7beOvjT4o0n4aeLtbvzYJ4UuLyW8mi8p/Jtz9oFrEJvtAIPCgDOOor1f8A4hz/APgjx/0SJf8Awdaz/wDJtbXh7/g32/4JJ+Etc0/xN4a+FX2PUdKu7e9tbiPWtZ8yKa2YNEwze9iAcY5Irz8fjniTvyPhjDZd/ux99eIvi/8ACXxH4ev/AA3qc+ppBqNtJZSNHpWpeYI7iPyeP9G4PpX40/s0/wDBKv8AYO/Zs1rS/EOneOPiX4tHh3SNV0jw7aeIBeT2egQ65FJBqEum2yabGLaeRZSGPryQTX7x/wDCoPDP/QQ1z/wcah/8foHwc8KDpf65/wCDrUv/AJJrw/qR7p/Pz8Cv2AP2IPhf4Z+IH7L/AIV+PvxV8U6JN4SuPCmp+ENSvJL6z0Wy8QD5J7fThpm22uSIT9lbae/ytmu/+H3/AASz/YW+H3w28c+ANW8a/EfxTqPjXwwfAdxr+vNeX2qaboBeKX+zrDOni1t7YGOMgfZiAe/av2H8Pfsk/Bzwp4/1/wCKGgJq1r4g8Vx6fFq98msah5l2ulwvBa+Z/pGPkSRhwBnvXo//AAp/wx/z/wCt/wDg51H/AOSKhRYH44fFb9iv/gnfqa6z8SvjLqWvjRT8Kk+Gmq/bLe5hsoNB0xorz7fN/oo8i4tjDHN9qyLdfLzivgDwDb/8EF/Dnw38eeAfiv8AtMSfFO4+J2j2nh3UdW8Xa413ewaXpp8+wt7doYIxAtvPGkinAy4BOeBX9Mfj39mn4X/E/wAEaz8N/HZ1XUtD8QWVzp1/aSatfCOW2u12TRnE4IBU44IwOlfmOf8Ag3S/4I7t1+Ea/wDg51n/AOTaFBgfl/pEH/BClPg58SfhL8RP2qr/AMbaj8T4NKsdX8S67rIutYjsNEnhuNPs7d/sotlhheLJPlksSc5+UDvLn4gf8EFR49ufijbftAWltfXnxTtvi1Msd0uG1q0hmght8C0z9hHnSPtwJsn7+DX6DH/g3Y/4I69P+FQR/wDg41n/AOTaj/4h1/8Agjt/0SGP/wAHOs//ACbV/UVuB+Av7PPxg+GH7Rf/AAdlH4wfArXrTxJ4V1K1uDbajZnMMvk+D/s03lHvi4Vh+Br+7Kvy8/Zr/wCCNf8AwTi/ZE+LWnfHL9nv4dJoPinSROtpff2hqN0Yhcwm3lAW6uZV+aMsOnGTjGa/UOu0AooooAKKKKACiiigAooooAKKKKACiiigD85/hfpv9qePPDN/qUVl52n+MvF+03b5uBl5h/on4feHZa/RivhPwF4rtvFHxC8PT3FjZySJ4j8TWhmt0/1M1mXTk+rAEGvuygAooooA/9H+viiiigBrMqLuY4Arx2D9oX4BXV9oWl2vjjw/Lc+KONFhTUrUyajgf8uiiTM+B/zz3Vk/tR6F4o8Ufs0fEHwz4Jge61nUPDep21jDGQHkuJLWRIlXtksQBX4pfsufBrx14x+HHwu8A6p8P3h0nSPFGt+Io9Sn8MweGZprbSdJhttON3Zg/wCi3d1qM8LA/wDLwliWI20Afu7/AMLj+En/AAiE/wAQP+Ep0j+wbWQxTal9ug+xxyAgFGn3+WCCQME1sQfEDwLd67e+FbTWrGTU9NgW5urRLiIz28DdJZYg25IzjhiAK/m/+DXwm8dWP/BNzVPCPxS8IazaXfh3xJoT6RcReEyLgXum2VkJLnUtFAVtQsLbURPb3dyB/pVsGuFP8dd18CvA/iqH456jpt78N9R8HardeGPEs5gbS5mt/J1TRtC/s/TrfUsBJzZ/Z5rX7OOhh4AwKAP3M0T9pD9nnxLd6dp/hnx34d1G41d/LsIrXVLSV7pwPuwKspMh9lzXtYORmvyA/Z++AXjPwhH+y1D4v0KC7vPDHh+/TUbyPSobL+zy2lW8cEMygnyps/J8uMlW4GK/X5Pu0AOooooAKKKKACiiigAooooAKKKKACiiigAooooAKKKKACiiigAooooAKKKKACiiigD89Ph54Mt4/iB4em1G7l8Sy2XjDxTcQX8s32U2HmeYPsvkD/j5AB2g9sZr9C6+FPD/AME7/wD4WR4S8T6WmpxWXhvxJ4lvbv7awjaZ9RD7ZVH8VvljsGB24r7roAKKKKAP/9L+viiiigBCMjFR+VwV7GpaKAI9p45pQmKfRQBHs4xTwMDFLRQAUUUUAFFFFABRRRQAUUUUAFFFFABRRRQAUUUUAFFFFABRRRQAUUUUAFFFFABSEZGKWigAooooAKKKKAP/2Q==;" vertex="1" parent="WIyWlLk6GJQsqaUBKTNV-1">
          <mxGeometry x="-240" y="-5.219999999999999" width="380" height="959.22" as="geometry" />
        </mxCell>
      </root>
    </mxGraphModel>
  </diagram>
</mxfile>
